<?xml version="1.0" encoding="UTF-8"?><svg xmlns="http://www.w3.org/2000/svg" xmlns:xlink="http://www.w3.org/1999/xlink" height="348.9" preserveAspectRatio="xMidYMid meet" version="1.0" viewBox="-13.1 -6.7 513.4 348.9" width="513.4" zoomAndPan="magnify"><g id="change1_1"><path d="M219.294,294.415c-7.667,10.113-20.142,15.736-32.705,17.536-6.89.987-13.966.959-20.648,2.907-15.619,4.553-26.932,19.206-42.763,22.953-18.337,4.34-38.812-10.032-40.964-28.752-1.669-14.521,6.138-28.3,8.792-42.67,2.355-12.754.631-26.064,3.615-38.686,6.668-28.208,37.607-31.683,59.285-18.35,9.92,6.1,18.746,13.994,29.2,19.131,9.371,4.6,19.935,6.936,28.379,13.077C227.526,253.227,231.276,278.608,219.294,294.415ZM66.461,250.129a33.466,33.466,0,0,0-7.054-9.431c-11.822-11.713-33.414-22.524-50.64-19.052-21.891,4.411,3.085,37.809,11.533,44.524,9,7.154,19.515,12.1,29.923,16.984,2.683,1.259,5.5,2.546,8.46,2.42,4.967-.212,9.02-4.5,10.5-9.247s.918-9.863.195-14.782A40.975,40.975,0,0,0,66.461,250.129Zm13.933-77.894c-4.46-9.377-12.694-16.633-22.011-21.212-6.333-3.111-13.642-5.095-20.445-3.224-32.11,8.834-.575,46.413,12.627,56.487,6.2,4.731,14.44,8.645,21.58,5.506a17.648,17.648,0,0,0,7.828-7.609C85.152,193.183,84.854,181.612,80.394,172.235Zm16.128-2.668A22.263,22.263,0,0,0,136.973,158.2a39.908,39.908,0,0,0-1.51-11.85c-1.595-6.583-3.579-13.161-7.071-18.964s-8.646-10.825-15.047-13.037A27.4,27.4,0,0,0,97.731,114c-23.654,6.021-11.372,32.463-5.178,47.752A38.92,38.92,0,0,0,96.522,169.567Zm61.022,17.387c2.977,4.56,7.472,7.881,11.91,11.038,4.486,3.19,9.1,6.36,14.331,8.068a7.785,7.785,0,0,0,3.7.49c3.366-.581,4.863-4.512,5.511-7.865,1.974-10.214,1.883-20.706,1.519-31.1-.356-10.164-1.14-20.861-6.761-29.336-6.666-10.05-20.191-13.84-29.457-5.389-10.237,9.335-7.618,26.559-5.73,38.963C153.372,177.113,154.618,182.473,157.544,186.954Zm289.191-64.89c-10.24-15.847-21.6-31.395-36.752-42.635-7.969-5.912-17.527-10.671-27.41-9.779-12.923,1.167-22.94,11.451-31.23,21.433a434.44,434.44,0,0,0-29.521,40c-7.636,11.693-14.955,24.688-14.231,38.635.356,6.875,2.981,13.967,8.475,18.116,18.422,13.91,37.511-9.789,55.712-9.842,7.1-.021,13.285,4,20.124,5.491,12,2.611,25.578,2,37.759,1.379,6.625-.337,13.5-1.053,19.125-4.567,9.214-5.763,12.741-17.957,11.161-28.71S452.635,131.191,446.735,122.064ZM321.306,81.085a153.612,153.612,0,0,0-5.246-15.771c-2.214-5.619-4.944-11.342-9.762-14.983s-12.275-4.451-16.646-.283c-2.068,1.972-3.174,4.729-4.087,7.436C281.838,68.537,280.4,80.82,284.347,91.8c3.372,9.368,14.232,22.378,25.469,18.725C322.948,106.25,324.388,92.351,321.306,81.085Zm29.458-13.239c8.785,5.539,21.337-4.482,25.085-12.082,5.386-10.932,5.786-23.9,2.686-35.691-1.414-5.374-3.715-10.826-8.131-14.2a19.594,19.594,0,0,0-6.152-3.056c-11.043-3.4-19.026,1.066-22.865,11.412q-.143.383-.276.776a58.683,58.683,0,0,0,3.276,44.908C345.939,62.978,347.858,66.014,350.764,67.846Zm85.941-1.653a15.5,15.5,0,0,0,3.653-3.58C448.561,52.09,450.7,38,450.211,24.666c-.193-5.26-.8-10.668-3.3-15.3-8.7-16.094-25.055-8.952-33.531,2.759q-.423.585-.818,1.181c-4.539,6.862-6.584,15.062-7.913,23.182a41.079,41.079,0,0,0-.584,12.521C406.124,63.13,423.705,74.635,436.705,66.193Zm58.683-7.527a8.611,8.611,0,0,0-4.3-3.363c-3.164-.908-6.367,1.073-9.041,2.992-10.771,7.732-22.425,16.566-29.505,28.025-5.427,8.783-.535,22.878,8.63,28.041,4.771,2.688,10.734,2.322,15.951.659a31.574,31.574,0,0,0,18.118-14.442c3.346-6.105,4.275-13.226,4.64-20.178C500.277,72.856,499.9,64.724,495.388,58.666Z" fill="#ff852e"/></g></svg>