<?xml version="1.0" encoding="UTF-8" standalone="no"?><svg xmlns="http://www.w3.org/2000/svg" xmlns:xlink="http://www.w3.org/1999/xlink" fill="#000000" height="756.7" preserveAspectRatio="xMidYMid meet" version="1" viewBox="-0.2 -0.6 738.9 756.7" width="738.9" zoomAndPan="magnify"><g data-name="Layer 2"><g data-name="Layer 1"><g opacity="0.8"><g opacity="0.8"><g id="change1_5"><path d="M205.32,469.13C222,450.55,238.61,433.6,257,418.08a290.31,290.31,0,0,1,29.32-21.85,185.88,185.88,0,0,1,34.5-17.73,105.78,105.78,0,0,1,23.75-5.73,76.44,76.44,0,0,1,16.55,0c4.89.54,9.44,1.26,14.69,2.36a85.07,85.07,0,0,1,16.74,5c1.37.51,2.67,1.16,4,1.77.64.31,1.35.63,1.93.93l1.76.9c2.36,1.19,4.68,2.43,7,3.67q13.95,7.49,27.48,15.83A561.4,561.4,0,0,1,487,439.82a476.53,476.53,0,0,1,47.91,43.08,315.68,315.68,0,0,1,40.54,50.93,205.47,205.47,0,0,1,12.24,22.62,165.11,165.11,0,0,1,8.9,24.18,131.78,131.78,0,0,1,4.55,25.43,114.9,114.9,0,0,1-.84,25.88,118.34,118.34,0,0,1-2.58,12.69c-.61,2.07-1.17,4.15-1.85,6.19s-1.35,4.09-2.19,6.06l-1.19,3c-.4,1-.86,1.92-1.29,2.88l-2.61,5.71c-.83,1.92-1.87,3.74-2.83,5.61s-1.92,3.72-2.93,5.56L579.61,685l-1.61,2.7-1.77,2.62-3.54,5.23-3.85,5c-.65.83-1.28,1.68-1.94,2.5l-2.08,2.4c-1.41,1.58-2.74,3.22-4.21,4.74l-4.47,4.52c-.37.38-.73.76-1.12,1.13L553.83,717l-2.38,2.12a119.47,119.47,0,0,1-44.24,24.85,130.52,130.52,0,0,1-50.63,4.67,157.25,157.25,0,0,1-49.24-13.49c-3.92-1.75-7.76-3.72-11.54-5.79-1.86-1.09-3.78-2.1-5.61-3.26l-5.43-3.41c-6.51-4.18-13.56-7.22-20.63-7.6-8-.53-15.92,2.54-23.61,7.06s-15.26,10.17-23.4,15.37a125.1,125.1,0,0,1-26.42,13.39,92.45,92.45,0,0,1-29.79,5.19,116.82,116.82,0,0,1-29.64-3.79c-4.79-1.2-9.48-2.69-14.09-4.3s-9.15-3.4-13.62-5.43A155.25,155.25,0,0,1,177.61,728a134.29,134.29,0,0,1-22.88-20,119.27,119.27,0,0,1-20.26-31.37,120.8,120.8,0,0,1-9.56-36,71.64,71.64,0,0,1,.44-15.92c.7-3.71,1.56-4.86,2.5.56a188.29,188.29,0,0,0,4.07,18.47,158.18,158.18,0,0,0,6.83,19.72,118,118,0,0,0,11.08,20.28,116.3,116.3,0,0,0,14.25,17,127.75,127.75,0,0,0,35,23.95,161.63,161.63,0,0,0,19.62,7.7,146.45,146.45,0,0,0,20.44,5.1,98.46,98.46,0,0,0,20.74,1.38,75.64,75.64,0,0,0,20.32-3.68A101.83,101.83,0,0,0,299.83,726c6.35-3.71,12.57-8,19.25-12.49s13.85-9.12,22.7-12.62a56,56,0,0,1,14.4-3.62,48.28,48.28,0,0,1,15.33.84,57.57,57.57,0,0,1,13.67,4.94c2.08,1.06,4.07,2.2,6,3.4s3.85,2.57,5.19,3.46A136.25,136.25,0,0,0,415,720.9a139.22,139.22,0,0,0,20.43,8c1.78.49,3.54,1.07,5.34,1.49l5.41,1.27,5.48,1c1.84.31,3.69.49,5.55.74a119.84,119.84,0,0,0,21.39.34,105.65,105.65,0,0,0,20.22-3.65,94.84,94.84,0,0,0,18.52-7.36A98.62,98.62,0,0,0,533.81,712l3.77-3.12c1.24-1.06,2.39-2.24,3.59-3.34,2.44-2.16,4.56-4.7,6.82-7.06,1.11-1.21,2.1-2.54,3.16-3.8s2.14-2.5,3.07-3.89c1.91-2.72,4-5.32,5.68-8.22l2.7-4.24c.82-1.48,1.65-3,2.48-4.43l1.25-2.23c.42-.73.83-1.48,1.19-2.26.76-1.54,1.51-3.08,2.27-4.63l1.14-2.31c.39-.78.7-1.6,1.05-2.39l2.07-4.81c.34-.8.71-1.62,1-2.41l.88-2.35c.62-1.55,1.11-3.15,1.63-4.75s1.07-3.38,1.64-5.07.95-3.4,1.45-5.08.85-3.36,1.2-5c.18-.83.35-1.65.53-2.45.09-.41.18-.81.26-1.21s.15-.8.21-1.2c1.21-6.34,1.89-12,2.46-16.11.22-2.1.38-3.87.58-5.4s.27-2.82.42-4c.24-2.31.46-4.08.51-6.15a38.59,38.59,0,0,0-.78-8,89.16,89.16,0,0,0-4.26-14.74c-6.59-16.91-15.77-31.4-26.22-45s-22.42-26.48-36.13-40a451.48,451.48,0,0,0-35.67-31.69c-12.21-9.75-24.71-18.77-37.63-27.15a415.62,415.62,0,0,0-40.24-23.07c-3.49-1.73-7-3.43-10.59-5.06l-2.69-1.21-1.35-.61-1.27-.51c-.85-.34-1.68-.71-2.55-1l-2.59-.88a66.19,66.19,0,0,0-10.75-2.44,73,73,0,0,0-11.19-.64c-11.9.38-23.78,3.41-35.09,8a201.15,201.15,0,0,0-32.58,17.24c-10.4,6.66-20.36,14-30,21.5s-19,15.33-28.13,23.12c-14.71,12.61-26.81,23.16-38.29,33.37s-22.26,20.18-33.74,32.2c-2,2.1-4,4.39-6,6.75-1,1.19-1.93,2.45-2.91,3.7l-1.46,1.9-1.38,2a126.62,126.62,0,0,0-10.24,17.29,147,147,0,0,0-13,40.08c-.22,1.4-.47,2.72-.75,4-.14.65-.28,1.28-.43,1.92l-.38,1.92c-.27,1.28-.54,2.58-.82,3.93s-.45,2.79-.66,4.33a114.32,114.32,0,0,1,1.08-26.89,131.73,131.73,0,0,1,8.34-29.75A146.31,146.31,0,0,1,152.36,530l2.47-3.32c.83-1.11,1.66-2.22,2.47-3.22,1.62-2.05,3.26-4.09,4.9-6.11q4.94-6,9.94-11.79c3.71-4.18,5.76-5.55,8.68-8.3C189.76,487.72,197.09,478.34,205.32,469.13Z" fill="#000000" opacity="0.8"/></g><g id="change2_5"><path d="M200.17,477.12c16.36-18.76,32.61-35.92,50.47-51.77A316.29,316.29,0,0,1,279,402.84a205.58,205.58,0,0,1,33.1-19,113.31,113.31,0,0,1,22.73-7.2,82.36,82.36,0,0,1,16-1.42c4.77,0,9.26.31,14.45.77a86.8,86.8,0,0,1,16.8,2.85c1.37.38,2.75.75,4.09,1.23s2.72.89,4,1.45,2.66,1,3.94,1.65l1.94.9c.65.3,1.29.6,1.86.9q14.08,7.13,27.72,15.21a558.74,558.74,0,0,1,52.79,35.47,496.84,496.84,0,0,1,48.61,41.87c15.25,15.12,29.57,31.39,41.8,49.32a195.89,195.89,0,0,1,23.16,45c5.53,15.92,8.53,32.86,7.56,49.73a114.62,114.62,0,0,1-1.36,12.55,116.17,116.17,0,0,1-2.81,12.28l-.89,3-1,3c-.64,2-1.44,3.93-2.21,5.87l-.58,1.45-.64,1.41-1.28,2.79-2.56,5.59a184.49,184.49,0,0,1-12.33,21.31l-1.73,2.56-.86,1.27-.94,1.23-3.76,4.91-.94,1.22-1,1.17-2,2.34c-1.37,1.55-2.67,3.15-4.17,4.59a120.67,120.67,0,0,1-40.57,28.29A116.47,116.47,0,0,1,494,745.64a131.08,131.08,0,0,1-24.95,2.18,140.46,140.46,0,0,1-25-2.43,158.22,158.22,0,0,1-24.39-6.69,163.77,163.77,0,0,1-23.26-10.52c-1.85-1.08-3.75-2.08-5.57-3.22l-5.42-3.39A56.94,56.94,0,0,0,375,716.24c-1-.42-2-.7-3.06-1s-2-.57-3.09-.75a30.39,30.39,0,0,0-6.21-.65,33,33,0,0,0-6.18.55,39.66,39.66,0,0,0-6.08,1.7c-8,2.94-15.63,8.18-23.36,13.43s-15.71,10.74-24.51,15.14a95.28,95.28,0,0,1-28.23,9.27,100.15,100.15,0,0,1-29.79,0,127.24,127.24,0,0,1-14.45-3c-4.74-1.24-9.41-2.72-14-4.4-18.22-6.6-35.94-16.14-51-29.69a116.25,116.25,0,0,1-36.3-63.32c-.48-2.59-1.07-6.34-1.53-10.33a115.05,115.05,0,0,1-.71-11.77c0-1.78,0-3.38.1-4.69a20.54,20.54,0,0,1,.32-3c.27-1.21.6-.95,1.09,1.79a186.34,186.34,0,0,0,4.09,18.46A156.06,156.06,0,0,0,139,663.6a114.07,114.07,0,0,0,25.35,37.14,128,128,0,0,0,35,23.86A164,164,0,0,0,219,732.27a145,145,0,0,0,20.42,5.06,98.89,98.89,0,0,0,20.71,1.33,75.37,75.37,0,0,0,20.27-3.74,102.3,102.3,0,0,0,19.55-9.13c6.34-3.74,12.55-8,19.25-12.51,3.36-2.23,6.81-4.49,10.57-6.65a86.18,86.18,0,0,1,12.22-6,55.76,55.76,0,0,1,14.48-3.57,48.57,48.57,0,0,1,15.38.93,57.69,57.69,0,0,1,13.67,5c1,.52,2,1.1,3.05,1.65s1.94,1.18,2.91,1.77,1.86,1.23,2.79,1.85l2.35,1.6a137.1,137.1,0,0,0,18.68,10.91,139.49,139.49,0,0,0,20.43,8,116,116,0,0,0,43.11,4.76A104.23,104.23,0,0,0,499,729.86a94.2,94.2,0,0,0,18.47-7.38,97.27,97.27,0,0,0,16.39-10.71l3.76-3.11c1.22-1.08,2.38-2.24,3.58-3.35l1.77-1.67c.59-.57,1.12-1.2,1.69-1.79l3.34-3.6c1.09-1.22,2.09-2.54,3.14-3.8s2.13-2.5,3.06-3.89c1.92-2.7,3.94-5.32,5.66-8.21l2.7-4.24,2.47-4.43,1.24-2.22.62-1.11.57-1.16,2.26-4.62,1.14-2.31c.37-.79.69-1.6,1-2.39.69-1.6,1.37-3.2,2.07-4.81.33-.8.72-1.62,1-2.4l.87-2.34c.62-1.55,1.1-3.15,1.62-4.74l.44-1.26.39-1.27.8-2.54c.5-1.69.95-3.4,1.43-5.07.84-3.38,1.62-6.69,2.19-9.86,1.19-6.34,1.85-12,2.43-16.11.2-2.09.38-3.85.56-5.37s.28-2.79.43-3.93c.24-2.27.47-4,.53-6a37.88,37.88,0,0,0-.75-7.85c-.28-1.75-.83-3.77-1.45-6.2-.36-1.2-.76-2.5-1.19-3.92s-1-2.91-1.6-4.55c-6.56-16.91-15.72-31.39-26.16-45s-22.38-26.48-36.08-40a447.65,447.65,0,0,0-35.65-31.7c-12.2-9.75-24.7-18.77-37.61-27.15A415.14,415.14,0,0,0,406,404.71l-5.26-2.57-5.33-2.49-2.69-1.21-1.34-.61-1.28-.52c-.84-.34-1.68-.7-2.53-1l-2.6-.88A64.28,64.28,0,0,0,374.23,393a71.21,71.21,0,0,0-11.15-.65c-11.89.34-23.74,3.37-35.05,7.94a200.64,200.64,0,0,0-32.55,17.19c-10.39,6.64-20.35,13.94-30,21.47s-19,15.32-28.14,23.11c-14.71,12.6-26.81,23.15-38.29,33.36s-22.25,20.16-33.73,32.17c-2,2.11-4,4.39-6,6.75-1,1.18-1.94,2.44-2.92,3.69l-1.45,1.9-1.39,2a127.17,127.17,0,0,0-10.24,17.25,147.17,147.17,0,0,0-13,40c-.22,1.39-.47,2.71-.74,4-.15.64-.29,1.28-.44,1.91l-.38,1.92c-.27,1.28-.54,2.58-.82,3.93s-.45,2.78-.67,4.3c-1.33-16.1,1.3-34.07,8.25-51.65A141.62,141.62,0,0,1,149,537.66c1.35-2.11,2.87-4.13,4.32-6.21s3.11-4.06,4.67-6.05q4.66-5.74,9.59-11.52c3.63-4.2,5.68-5.61,8.56-8.38C184.92,495.84,192.1,486.39,200.17,477.12Z" fill="#000000" opacity="0.8"/></g><g id="change3_5"><path d="M192.3,490.71c15.86-19,31.57-36.47,48.66-52.77,8.56-8.14,17.48-16,27-23.41a240.06,240.06,0,0,1,31.1-20.71,124,124,0,0,1,21.19-9,88.75,88.75,0,0,1,15.06-3.26c4.53-.57,8.79-1,13.76-1.36A88.2,88.2,0,0,1,381,382.65a80.23,80.23,0,0,1,14.76,5.7c4.5,2.31,8.95,4.66,13.34,7.09a529.45,529.45,0,0,1,50.61,32,549.73,549.73,0,0,1,47.14,37.62,416.63,416.63,0,0,1,43.34,44.69,239,239,0,0,1,27.31,40.73c7.41,14.28,13.08,29.32,15.72,44.84A117.7,117.7,0,0,1,595,618.73a110,110,0,0,1-3.16,23,111.34,111.34,0,0,1-7.91,21.75,186.93,186.93,0,0,1-10.85,20.4c-1,1.64-2.13,3.22-3.19,4.83s-2.09,3.24-3.3,4.74l-3.5,4.61a28,28,0,0,1-1.82,2.25l-1.89,2.19c-2.44,3-5.23,5.69-7.92,8.47-1.38,1.36-2.86,2.61-4.29,3.92l-2.16,2-2.29,1.8-2.28,1.8c-.77.6-1.51,1.23-2.33,1.75l-4.81,3.31c-1.62,1.08-3.34,2-5,3-.84.48-1.66,1-2.53,1.47l-2.62,1.32a107.78,107.78,0,0,1-22,8.48A125.54,125.54,0,0,1,453.47,743a153.4,153.4,0,0,1-47.59-13.91c-2.17-1.05-4.29-2.17-6.43-3.24s-4.19-2.33-6.25-3.54l-6.08-3.76c-1-.62-2-1.24-3-1.8s-2-1.12-3.09-1.63A44.59,44.59,0,0,0,368,710.83a35.19,35.19,0,0,0-13.49.53,51.92,51.92,0,0,0-12.66,4.94A133,133,0,0,0,330,723.54c-7.68,5.18-15.29,10.7-23.54,15.37a98.76,98.76,0,0,1-26.56,10.7,91.33,91.33,0,0,1-28.84,1.87,127.74,127.74,0,0,1-28.26-6,175.87,175.87,0,0,1-26.73-11.21,142.53,142.53,0,0,1-33.94-24.81,113.56,113.56,0,0,1-14.07-17.33,100.57,100.57,0,0,1-9.48-18.06l-1.8-4.86c-.67-2-1.52-4.26-2.24-6.74a130.67,130.67,0,0,1-3.77-15.54,89.2,89.2,0,0,1-1.34-11.83,4.86,4.86,0,0,1,.13-2c.13-.09.33.47.68,1.83a177.8,177.8,0,0,0,5.32,18,144.63,144.63,0,0,0,8.24,18.86,113.07,113.07,0,0,0,27.89,34.55A133.78,133.78,0,0,0,208,727.45,171.26,171.26,0,0,0,227.83,734a123.73,123.73,0,0,0,20.27,3.56,84.11,84.11,0,0,0,20.14-.64,74.36,74.36,0,0,0,19.34-5.85,136.72,136.72,0,0,0,19-10.9c6.32-4.18,12.7-8.85,20-13.38a100.69,100.69,0,0,1,12-6.41A60.82,60.82,0,0,1,353,695.91a49.93,49.93,0,0,1,16-.13,56.66,56.66,0,0,1,14.61,4.43,77,77,0,0,1,12.13,7l4.42,3c1.47,1,3,1.88,4.51,2.83a145.81,145.81,0,0,0,19.12,9.68,126,126,0,0,0,20.61,6.62,120,120,0,0,0,21.68,3,105.91,105.91,0,0,0,21-1.28c3.41-.47,6.7-1.31,10-2.08l4.82-1.42c.81-.22,1.59-.52,2.37-.81l2.33-.86a92.63,92.63,0,0,0,17.53-8.77l2.06-1.27,2-1.43c1.3-.95,2.64-1.85,3.91-2.84,2.47-2.1,5.05-4,7.33-6.34a120.46,120.46,0,0,0,13-14.39,147.49,147.49,0,0,0,10.78-16.56l2.44-4.37c.75-1.52,1.49-3,2.23-4.55s1.52-3,2.2-4.58l2-4.72,1-2.37.51-1.19.42-1.14c.55-1.53,1.18-3,1.63-4.6s1-3.09,1.41-4.68l.65-2.37.53-2.4a141.25,141.25,0,0,0,3.48-20.08c.63-6.33.87-12,1.09-16.09.09-2.09.08-3.79.18-5.22s.09-2.57.18-3.56c.18-2,.31-3.28.32-4.89a28.73,28.73,0,0,0-.88-6.62A95.94,95.94,0,0,0,578,567c-7.09-16.49-16.55-30.62-27.23-43.95s-22.79-25.91-36.63-39.15a456.91,456.91,0,0,0-35.94-31.1c-12.27-9.56-24.82-18.41-37.79-26.61a405.21,405.21,0,0,0-40.32-22.48l-5.28-2.48L392.11,400c-.89-.4-1.79-.82-2.58-1.13a62,62,0,0,0-10.09-3.3,67.24,67.24,0,0,0-21.59-1.4,94.41,94.41,0,0,0-17.36,3.38,134.52,134.52,0,0,0-16.9,6.29,218,218,0,0,0-31.88,18.05c-10.2,6.85-20,14.29-29.5,21.94s-18.73,15.52-27.76,23.38C219.9,480,207.9,490.61,196.53,500.89s-22.1,20.25-33.37,32.36a121.7,121.7,0,0,0-20.6,32,144.75,144.75,0,0,0-11.25,40c-.63,5.53-1.83,9.89-2.34,16-2-15.88,0-31.2,5.12-46.49a137.57,137.57,0,0,1,10.34-23.13A164.62,164.62,0,0,1,160.57,528c3.54-4.26,5.57-5.7,8.37-8.51C177.53,509.65,184.49,500.1,192.3,490.71Z" fill="#000000" opacity="0.8"/></g><g id="change4_5"><path d="M196.13,495.3l16-19.4c4.8-5.82,9.33-11.29,14.49-17.14s10.94-12.12,18.46-19.33a279.19,279.19,0,0,1,29.2-24.53,155.94,155.94,0,0,1,19.05-11.6A107.54,107.54,0,0,1,307,397.6l12.51-4.19A146.27,146.27,0,0,1,334.14,389a112.37,112.37,0,0,1,14.87-2.6,83.52,83.52,0,0,1,29.38,1.85,71.62,71.62,0,0,1,13.6,5c4.38,2.15,8.79,4.47,13.12,6.82,8.68,4.69,17.18,9.7,25.58,14.9a573.47,573.47,0,0,1,49,34.18,496.42,496.42,0,0,1,46.22,40.68,300.69,300.69,0,0,1,30.44,35.7,206.65,206.65,0,0,1,21.51,37,138.82,138.82,0,0,1,11,38.27,103.84,103.84,0,0,1-7.93,56.1c-1.38,3-2.68,6-4.12,8.89s-3,5.83-4.6,8.69a145.74,145.74,0,0,1-24,31.85c-1.15,1.26-2.48,2.34-3.74,3.5l-1.91,1.72a22.28,22.28,0,0,1-2,1.68l-4.08,3.22c-.34.27-.68.55-1,.8l-1.08.74-2.16,1.49-2.17,1.5c-.72.51-1.5.91-2.25,1.38-1.53.89-3,1.83-4.59,2.71l-4.8,2.45c-.4.2-.8.42-1.21.61l-1.24.54-2.51,1.08a109.54,109.54,0,0,1-21.37,6.6,121.63,121.63,0,0,1-23.49,2.23,141.17,141.17,0,0,1-51.69-10.32,151.45,151.45,0,0,1-22.65-11.31l-5.49-3.4c-1.93-1.18-3.93-2.26-6-3.27a51.48,51.48,0,0,0-13.15-4.37,41.11,41.11,0,0,0-14,0,51.46,51.46,0,0,0-13.08,4.28c-8.18,3.88-15.32,9-22.53,13.9a179.2,179.2,0,0,1-22.44,13.58,85.28,85.28,0,0,1-25.65,8,98.86,98.86,0,0,1-22.67.4,130.8,130.8,0,0,1-28.78-6.34,153.82,153.82,0,0,1-27.25-12,103.19,103.19,0,0,1-19-13.68c-1.77-1.75-6.91-6-12.6-12.29a126.29,126.29,0,0,1-8.73-10.58,121.21,121.21,0,0,1-7.9-12.3,115.94,115.94,0,0,1-9.65-22.56c-1.7-5.67-2.14-8.45-1.23-5.84,2,5.17,3.73,8.94,5.66,13s4.16,8.34,7.66,14.19a110.17,110.17,0,0,0,13.35,17.92,113.1,113.1,0,0,0,15.5,14.13,137.23,137.23,0,0,0,34.85,18.91c12.28,4.54,25,8,38,9a85.06,85.06,0,0,0,9.71.2,71.58,71.58,0,0,0,9.69-.93,74.1,74.1,0,0,0,19.09-5.8,137,137,0,0,0,19.12-11c6.4-4.23,12.88-9,20.41-13.62A96.87,96.87,0,0,1,339.48,700a64.35,64.35,0,0,1,7.17-2.59c1.23-.39,2.55-.68,3.83-1s2.63-.54,4-.71a49.92,49.92,0,0,1,16.41.39,58.15,58.15,0,0,1,14.68,5c2.23,1.09,4.33,2.28,6.35,3.53,1,.61,2,1.28,2.95,1.92l2.49,1.68c3,2.08,6.07,4,9.2,5.87a138.13,138.13,0,0,0,19.75,9.53,122.31,122.31,0,0,0,42.92,8.75,108.8,108.8,0,0,0,20.9-1.79,105.83,105.83,0,0,0,19.3-5.75,103.27,103.27,0,0,0,17.26-9.3c2.63-1.9,5.31-3.71,7.75-5.85,2.55-2,4.85-4.28,7.2-6.48a21.34,21.34,0,0,0,1.7-1.73l1.66-1.79,1.65-1.77.83-.89.77-.95c2-2.54,4.18-5,6-7.7l2.86-4,2.64-4.19c1.84-2.73,3.36-5.71,5-8.61.4-.73.83-1.44,1.2-2.19l1.1-2.27,2.22-4.55.56-1.14.5-1.18,1-2.35c.67-1.57,1.34-3.15,2-4.72a95.28,95.28,0,0,0,5.5-18.74,151.61,151.61,0,0,0,2.84-20.21c.48-6.36.48-12.07.62-16.16,0-1,0-2,0-2.9s-.09-1.71-.13-2.47a37,37,0,0,0-.41-3.93,32.27,32.27,0,0,0-1.4-5.92c-.29-1-.68-2-1.14-3.23s-1-2.59-1.64-4.22c-.32-.83-.68-1.71-1.06-2.68l-1.33-3.14c-.46-1.14-1-2.36-1.6-3.68s-1.2-2.75-1.94-4.28a227.12,227.12,0,0,0-12.15-22c-4.28-6.85-8.74-13.32-13.51-19.67a292,292,0,0,0-34.29-38.08A463.16,463.16,0,0,0,475.54,451c-12.33-9.49-24.94-18.26-38-26.36a400.24,400.24,0,0,0-40.46-22.18c-1.75-.84-3.52-1.64-5.29-2.44l-1.33-.6-1.22-.51c-.82-.33-1.63-.68-2.45-1a69.73,69.73,0,0,0-10.2-2.85A71.46,71.46,0,0,0,366,394a79.86,79.86,0,0,0-11,.58c-11.64,1.55-23.13,5.43-34.11,10.64a229.26,229.26,0,0,0-31.66,18.57c-20.26,14-38.94,30-56.93,45.82-14.47,12.8-26.41,23.48-37.73,33.8-5.66,5.17-11.15,10.27-16.64,15.58-2.75,2.66-5.5,5.37-8.27,8.18l-4.17,4.28c-1.37,1.46-2.72,3-4.11,4.49a115.71,115.71,0,0,0-10.81,14.76,135,135,0,0,0-9.08,17.62,142.9,142.9,0,0,0-10.27,40.28c-.63,5.49-1.52,9.91-2,16a90.39,90.39,0,0,1-.55-21.89,96,96,0,0,1,4.06-19.78,135.9,135.9,0,0,1,8.14-20.29,187.39,187.39,0,0,1,13.62-23.19,31.07,31.07,0,0,1,2.61-3.11,29.45,29.45,0,0,1,2.78-2.62c1.89-1.59,3.62-3,5-4.39-5,6.05-5.64,6.92-3.81,4.71s6.21-7.37,11.37-13.15,11-12.22,15.71-17.14S196.13,495.3,196.13,495.3Z" fill="#000000" opacity="0.8"/></g></g></g><g opacity="0.8"><g opacity="0.8"><g id="change1_2"><path d="M565.23,348.92a116.4,116.4,0,0,0,.18,16.64c.14,2.69.58,5.32.89,7.93.19,1.31.46,2.59.68,3.88s.44,2.57.76,3.82l.88,3.78c.31,1.25.72,2.47,1.06,3.71.63,2.49,1.58,4.89,2.38,7.33.39,1.22,1,2.39,1.41,3.59l.72,1.8.35.9.42.88c1.13,2.37,2.1,4.68,3.47,7.31,1.43,3,2.64,6.19,3.86,9.42,1.76,5,1.91,8.44,3.71,12.38a90.85,90.85,0,0,0,7.11,12A58.75,58.75,0,0,0,602,454.48c6.55,6,14.56,9.9,23.51,10.36S644,462.91,653,458.93A120.72,120.72,0,0,0,666.31,452a79,79,0,0,0,11.93-8.46,98.24,98.24,0,0,0,15.11-17,135.6,135.6,0,0,0,11.56-19.87,169.71,169.71,0,0,0,13.85-43.93,150.72,150.72,0,0,0,1.08-46.21,112.39,112.39,0,0,0-5.51-22.61c-.72-1.8-1.34-3.65-2.14-5.43s-1.55-3.54-2.47-5.31c-1.8-3.56-3.71-7.06-5.82-10.45l-1.8-2.86-1.9-2.77c-1.24-1.87-2.64-3.58-4-5.35a87.54,87.54,0,0,0-8.84-9.55,63.78,63.78,0,0,0-10-7.67,49.19,49.19,0,0,0-10.88-5.18,44.77,44.77,0,0,0-11.39-2.17,46.76,46.76,0,0,0-11.43,1,57.42,57.42,0,0,0-11.1,3.88c-1.78,1-3.6,1.77-5.33,2.89-.87.54-1.76,1-2.62,1.6l-2.56,1.77a123.09,123.09,0,0,0-12.22,9.44c-4,3.31-7.78,6.95-11.94,10.73a29.14,29.14,0,0,1-6,4.09c-1.79.88-2.84.69-1.7-1.8a79.88,79.88,0,0,1,10.09-16.3A124.5,124.5,0,0,1,616,238.13,75.71,75.71,0,0,1,635.12,226a60.14,60.14,0,0,1,11.39-3.65,56.4,56.4,0,0,1,12.49-1.1A57.12,57.12,0,0,1,672,223,62.89,62.89,0,0,1,678.5,225c1.06.41,2.16.79,3.21,1.26l3.13,1.48a34,34,0,0,1,3.16,1.68c1,.59,2.07,1.17,3,1.81a68.39,68.39,0,0,1,5.62,4.08l2.64,2.18,2.46,2.31c1.66,1.53,3.11,3.19,4.59,4.82a101.06,101.06,0,0,1,14.12,21.19c.91,1.86,1.83,3.71,2.69,5.58s1.64,3.75,2.44,5.66,1.49,4,2.24,6,1.27,4,1.91,6a170.8,170.8,0,0,1,5,24.76,205.27,205.27,0,0,1,1.91,23.84,197.34,197.34,0,0,1-.75,22.77,173.93,173.93,0,0,1-9.76,44.82c-.41,1-.81,2-1.27,2.93s-1,1.9-1.45,2.82-1,1.83-1.51,2.7-1.08,1.7-1.62,2.5a40.55,40.55,0,0,1-6.2,7.41,41.52,41.52,0,0,1-7.34,5.48c-1.93,1.37-3.79,3.53-8.37,9.3a140.62,140.62,0,0,1-9.08,10.75q-1.23,1.24-2.46,2.46l-1.23,1.24-1.3,1.16-2.61,2.32c-.91.74-1.85,1.45-2.79,2.18l-1.4,1.08c-.47.36-.93.65-1.39,1l-2.78,1.94c-1.91,1.24-3.81,2.54-5.85,3.73A92.12,92.12,0,0,1,654.4,473a74.48,74.48,0,0,1-25.6,5.62,56.41,56.41,0,0,1-13.21-1.3,52.12,52.12,0,0,1-12.38-4.53c-1-.52-2-1-2.88-1.55l-2.76-1.71c-.91-.58-1.75-1.23-2.63-1.85l-1.31-.94-1.24-1a88.59,88.59,0,0,1-9.26-8.68,158.93,158.93,0,0,1-15.34-20.15,180.55,180.55,0,0,1-10.2-17.3l-1.16-2.21c-.38-.74-.73-1.56-1.1-2.33l-2.15-4.74c-.62-1.61-1.21-3.23-1.81-4.85-.29-.82-.6-1.62-.87-2.44l-.72-2.48a91.17,91.17,0,0,1,4.52-65.06c3.27-7.24,7-13.73,11-20.93,5.51-10.12,11-22.93,18.18-34.23,1.43-2.26,3.24-3.65,5.23-5.73-2.3,7.21-5.52,15.79-8.84,24.8l-5,13.74c-1.58,4.63-3.2,9.21-4.63,13.69a30.73,30.73,0,0,1-2.61,5.05,33.92,33.92,0,0,0-1.16,4.33,40,40,0,0,0-.67,4.28c-.15,1.42-.28,2.83-.4,4.24S565.33,347.51,565.23,348.92Z" fill="#000000" opacity="0.8"/></g><g id="change2_2"><path d="M564.13,344.39a135.46,135.46,0,0,0-.36,16.89,118.85,118.85,0,0,0,1.81,16,121.33,121.33,0,0,0,9.56,30.08c.16.35.31.71.45,1.07l.51,1.16c.33.78.64,1.57.94,2.38s.59,1.63.88,2.46.61,1.63.91,2.45c.42,1.28.73,2.46,1,3.58s.52,2.13.74,3.14.44,2,.71,3a31.4,31.4,0,0,0,1,3c1,2.2,2.12,4.26,3.21,6.4.57,1,1.18,2.05,1.77,3.09l.9,1.54,1,1.49c.65,1,1.26,2,2,2.95l2.08,2.86,2.23,2.72c.74.92,1.58,1.71,2.36,2.58a48.12,48.12,0,0,0,10.78,8.53,38.45,38.45,0,0,0,12.84,4.58c9.14,1.49,19-.45,28.26-4.08a106.71,106.71,0,0,0,13.66-6.54c2.22-1.27,4.42-2.55,6.59-3.93l1.62-1,1.51-1.05c1-.73,2-1.35,3-2.16a91.25,91.25,0,0,0,16.11-16.45,127.32,127.32,0,0,0,12.26-19.54,166.8,166.8,0,0,0,15-43.44A157.08,157.08,0,0,0,721.93,322a120.9,120.9,0,0,0-4.51-23c-.62-1.85-1.17-3.75-1.87-5.59s-1.37-3.69-2.19-5.48-1.59-3.6-2.53-5.38S709,279,708,277.24a109.38,109.38,0,0,0-15.68-21.79A66.26,66.26,0,0,0,672,240.32a43.93,43.93,0,0,0-11.49-3.62,41.14,41.14,0,0,0-11.77-.42,54.63,54.63,0,0,0-22.59,8.07,105.44,105.44,0,0,0-12.79,8.7c-2.08,1.52-4,3.26-6.14,4.91-1.05.82-2,1.76-3.09,2.63s-2.14,1.73-3.17,2.7c-.92.73-2.21,1.83-3.6,3s-2.79,2.48-4.06,3.51c-2.5,2.07-4.31,3.29-3.16.79a80.53,80.53,0,0,1,10.11-16.31A124.2,124.2,0,0,1,616,237.93a76,76,0,0,1,19.22-12.17,61.89,61.89,0,0,1,11.42-3.64,58.2,58.2,0,0,1,12.54-1.07,57.55,57.55,0,0,1,13.08,1.82,63.93,63.93,0,0,1,6.47,2.07c1.06.42,2.18.79,3.21,1.28l3.15,1.48c1.11.49,2.11,1.11,3.15,1.69s2.08,1.17,3,1.83a66.82,66.82,0,0,1,5.62,4.09c.89.72,1.78,1.45,2.65,2.19l2.45,2.32c1.67,1.52,3.11,3.19,4.6,4.82a101.25,101.25,0,0,1,14.11,21.23c.91,1.86,1.83,3.71,2.69,5.59s1.64,3.75,2.43,5.67l2.25,6c.63,2,1.27,4,1.91,6.05a171.83,171.83,0,0,1,5,24.8,203.53,203.53,0,0,1,1.9,23.87,197.4,197.4,0,0,1-.77,22.78,174.3,174.3,0,0,1-9.79,44.86,52.3,52.3,0,0,1-2.74,5.75c-.5.93-1,1.84-1.51,2.7s-1.08,1.7-1.62,2.5a41.18,41.18,0,0,1-6.21,7.43,39.64,39.64,0,0,1-7.3,5.39c-1.9,1.33-3.74,3.46-8.32,9.24-2.87,3.85-6,7.36-9.09,10.79l-2.46,2.46L685.82,453c-.42.4-.86.78-1.29,1.17l-2.63,2.33c-.9.75-1.85,1.45-2.78,2.18-1.9,1.52-3.71,2.69-5.58,4s-3.81,2.55-5.85,3.73a91.89,91.89,0,0,1-13.15,6.7A83,83,0,0,1,642,477a64.68,64.68,0,0,1-13.11,1.71,56.2,56.2,0,0,1-13.25-1.28,52.7,52.7,0,0,1-12.44-4.52,61.13,61.13,0,0,1-10.85-7.07l-2.48-2-2.33-2.15c-.8-.71-1.54-1.46-2.27-2.22l-2.21-2.28A157.56,157.56,0,0,1,567.68,437a179.83,179.83,0,0,1-10.22-17.32l-1.16-2.21c-.38-.73-.73-1.55-1.1-2.33l-2.15-4.74c-.64-1.61-1.22-3.24-1.82-4.86-.29-.82-.6-1.62-.88-2.44l-.72-2.48a93.64,93.64,0,0,1-3.7-20c-.1-1.67-.19-3.33-.26-5s0-3.3.06-4.94l.08-2.46.21-2.43c.16-1.61.3-3.22.53-4.81a92.88,92.88,0,0,1,7.57-25.5c3.26-7.25,7-13.76,11-21,5.52-10.14,11-22.94,18.18-34.27,1.43-2.24,3.24-3.65,5.23-5.72-2.28,7.22-5.34,14.62-8.63,22.47s-6.86,16.15-10.06,25.12c-.88,2.45-1.83,3.34-2.75,5C565,333,564.68,338.69,564.13,344.39Z" fill="#000000" opacity="0.8"/></g><g id="change3_2"><path d="M562.2,336.64A133.78,133.78,0,0,0,561,353.92l0,2.11.06,2.09c0,1.39.07,2.78.13,4.16.24,2.75.33,5.49.72,8.2a137.51,137.51,0,0,0,2.84,16c.35,1.31.7,2.62,1.06,3.94.18.66.32,1.33.53,2l.63,1.95c.43,1.31.81,2.63,1.26,3.94s1,2.6,1.46,3.91c.5,1.52,1.09,3,1.6,4.64s.92,3.22,1.54,4.92c.78,2.63,1.13,4.87,1.56,6.93a33.46,33.46,0,0,0,1.59,6.18l1.44,3.39,1.54,3.31c1,2.23,2.16,4.33,3.27,6.49a101.85,101.85,0,0,0,7.7,12.12,67.25,67.25,0,0,0,9.67,10.42,46,46,0,0,0,12.08,7.54,42.63,42.63,0,0,0,14.14,3.23,53.84,53.84,0,0,0,14.81-1.33c9.83-2.23,19.25-6.6,28.21-12.06,1.79-1,3.5-2.16,5.23-3.22l2.52-1.73c.82-.59,1.68-1.13,2.45-1.78,1.57-1.27,3.19-2.46,4.63-3.85l2.22-2,2.1-2.12a111.28,111.28,0,0,0,14.4-18.48,158.5,158.5,0,0,0,18.13-41.89,168,168,0,0,0,6.24-45.41c-.07-15.54-2.37-31.59-8.44-47-.44-1.09-.85-2.18-1.31-3.25l-1.48-3.17c-.94-2.13-2.1-4.16-3.17-6.21s-2.31-4-3.46-6-2.44-3.9-3.78-5.76l-2-2.8c-.66-.93-1.39-1.81-2.08-2.71-1.36-1.83-2.88-3.51-4.35-5.23a85.06,85.06,0,0,0-9.71-9.29,58.28,58.28,0,0,0-23.07-11.88A49.13,49.13,0,0,0,651.2,233a51.74,51.74,0,0,0-12.54,2.21,63.5,63.5,0,0,0-16.75,7.91c-1.39.95-2.81,1.81-4.16,2.78s-2.68,1.94-4,2.88-2.54,2-3.78,2.87-2.38,1.88-3.53,2.71c-.5.32-1.16.81-1.92,1.39s-1.57,1.35-2.46,2.13l-2.75,2.47-2.65,2.58c-.85.82-1.65,1.58-2.36,2.23s-1.26,1.22-1.71,1.58c-.9.73-1.25.73-.67-.5a74.3,74.3,0,0,1,4.52-8c.9-1.39,1.92-2.75,2.93-4.14.51-.69,1-1.39,1.56-2.07l1.66-2a112.28,112.28,0,0,1,16.65-15.87,71.51,71.51,0,0,1,20.52-11.06,53.62,53.62,0,0,1,5.88-1.64c1-.27,2-.4,3.06-.57s2.06-.33,3.11-.47l3.18-.21,1.6-.1c.54,0,1.07,0,1.61,0l3.26.08c1.09.06,2.17.21,3.27.33a65.52,65.52,0,0,1,25.63,8.9c1.08.58,2,1.26,3,1.91s2,1.32,2.94,2c1.83,1.45,3.75,2.86,5.39,4.44l2.53,2.34c.81.8,1.57,1.62,2.35,2.44,1.58,1.63,3,3.34,4.37,5.06a109.07,109.07,0,0,1,13.38,21.82c.89,1.89,1.7,3.8,2.53,5.69s1.56,4,2.33,6c1.42,4.05,2.66,8.14,3.67,12.27a181.88,181.88,0,0,1,4.17,25.16,210,210,0,0,1-.21,47,173.92,173.92,0,0,1-11.08,45c-3.5,7.92-8.91,15.11-12.78,18.23a21.93,21.93,0,0,1-4.25,3.18c-1,.6-1.82.92-2.63,1.41a12.28,12.28,0,0,0-2.87,2.44c-1.16,1.32-2.82,3.18-5.17,6.09l-2.36,2.78-1.16,1.39-1.21,1.33-2.42,2.64c-.82.86-1.69,1.68-2.53,2.52-1.64,1.72-3.48,3.24-5.26,4.83-.89.8-1.88,1.49-2.83,2.24s-1.94,1.52-2.84,2.13c-7.36,5.22-15.26,10.27-25.21,14.05a80,80,0,0,1-13,3.59c-2.21.45-4.5.69-6.76.94l-3.44.17c-1.14.06-2.3,0-3.45,0a55.44,55.44,0,0,1-13.65-2.15,59.13,59.13,0,0,1-12.5-5.44,74,74,0,0,1-10.71-7.77L586.34,463c-.39-.37-.8-.74-1.18-1.11L584,460.7l-2.24-2.32L579.69,456a166.69,166.69,0,0,1-15.07-20.72c-3.66-5.73-7-11.61-10-17.56l-2.21-4.8c-.36-.8-.75-1.6-1.08-2.41l-.93-2.47c-.6-1.65-1.26-3.28-1.79-4.95l-1.47-5a97.05,97.05,0,0,1-3.22-20.36l-.13-2.54v-2.51c0-1.68,0-3.35.12-5a91.79,91.79,0,0,1,1.08-9.77,94.53,94.53,0,0,1,8-25.64c3.41-7.26,7.22-13.76,11.37-21,5.7-10.14,11.4-23,18.76-34.32,1.47-2.24,3.31-3.63,5.35-5.68a146.33,146.33,0,0,1-8.77,20.13c-3.38,6.67-7.24,13.78-10.79,22.8-1,2.46-2,3.35-3,5.05C563.6,325.07,562.94,330.84,562.2,336.64Z" fill="#000000" opacity="0.8"/></g><g id="change4_2"><path d="M556.5,335a79.11,79.11,0,0,0-.79,12.56c0,1.88.15,3.72.25,5.55.07.91.11,1.83.2,2.76s.19,1.86.29,2.82.19,1.93.29,2.94.25,2,.39,3.1.25,2.16.38,3.31.33,2.33.51,3.57c.66,5,1.59,10.75,3.18,17.82.68,3.28,1.27,6.77,1.85,10.32a68.27,68.27,0,0,1,.77,7.11,42.83,42.83,0,0,0,1.1,6.41,177.2,177.2,0,0,0,11.84,27.57c4.82,8.74,10.73,17.09,18.69,23.91A51.77,51.77,0,0,0,609,473.13a47.29,47.29,0,0,0,16,3.54,58,58,0,0,0,16.4-1.67A83.34,83.34,0,0,0,657,469.51c3.92-1.76,7.58-3.72,11.11-5.67,1.75-1,3.47-2,5.15-3s3.31-2,5-3.15a90,90,0,0,0,17.13-15.12A124.57,124.57,0,0,0,708,425.49a146.09,146.09,0,0,0,9.56-18.12,171.24,171.24,0,0,0,12.15-39.69,167.8,167.8,0,0,0,2.41-22.37,150.28,150.28,0,0,0-1-24.54,132.22,132.22,0,0,0-6.25-27.33,109.63,109.63,0,0,0-5.14-12.36c-.46-1-1-2-1.48-2.93l-1.52-2.87c-1-1.9-2.16-3.76-3.24-5.63a118.93,118.93,0,0,0-15.83-20.85c-.75-.83-1.56-1.61-2.38-2.37s-1.63-1.56-2.47-2.33c-1.75-1.45-3.43-3-5.33-4.33-.94-.67-1.83-1.41-2.83-2l-3-1.91c-1-.62-2.07-1.16-3.11-1.74a32.49,32.49,0,0,0-3.24-1.6c-.68-.32-1.43-.68-2.24-1l-2.68-1L669,230l-1.56-.4c-1.07-.24-2.16-.57-3.31-.75a50.27,50.27,0,0,0-14.92-.48,62.21,62.21,0,0,0-14.25,3.41c-1.08.32-2.07.81-3,1.17s-1.93.72-2.81,1.13c-1.74.81-3.36,1.42-4.71,2a39.24,39.24,0,0,0-7.37,4.42l-1.29.91-1.29,1-2.67,2.17c-1.78,1.52-3.53,3.18-5.23,4.75-6.67,6.48-11.54,12.86-10.3,10.41a56.54,56.54,0,0,1,8.56-12.5,105.14,105.14,0,0,1,16.89-15,69.34,69.34,0,0,1,19.94-9.83,57.94,57.94,0,0,1,23.8-1.83,66.23,66.23,0,0,1,25,8.86c1.08.58,2,1.26,3.06,1.92s2,1.31,2.94,2c1.85,1.46,3.78,2.89,5.44,4.48l2.56,2.38c.81.82,1.59,1.65,2.37,2.49,1.61,1.65,3,3.4,4.45,5.15a110.68,110.68,0,0,1,13.63,22.4c.87,1.95,1.73,3.88,2.57,5.86l2.37,6.2,2,6.27,1.64,6.32a180.79,180.79,0,0,1,3.91,25.46,215.36,215.36,0,0,1,.93,24.08,203,203,0,0,1-1.63,22.91,173.55,173.55,0,0,1-11.53,44.86,54.38,54.38,0,0,1-3,5.72,52.57,52.57,0,0,1-3.39,5.14c-.58.79-1.15,1.54-1.72,2.25s-1.18,1.36-1.74,2a32,32,0,0,1-3.16,3,51.52,51.52,0,0,0-4,3.76,16.66,16.66,0,0,0-2.18,2.72c-.66,1-1.28,2.19-2.47,3.84-.59.83-1.28,1.79-2.13,2.92s-2,2.36-3.26,3.82c-.8,1-1.69,1.87-2.56,2.75s-1.72,1.76-2.58,2.61l-2.71,2.39c-.89.79-1.78,1.55-2.74,2.25l-2.81,2.11c-.92.7-2,1.3-2.91,1.94l-1.47.94c-.5.31-1,.62-1.44.87L676,464.9c-3.74,2.07-7.56,4.08-11.72,6-2.06,1-4.25,1.92-6.47,2.91s-4.63,1.88-7.17,2.76a78.2,78.2,0,0,1-13.19,3.35,64.56,64.56,0,0,1-13.77.69A53.83,53.83,0,0,1,610.07,478a59.06,59.06,0,0,1-6.39-2.55,63.86,63.86,0,0,1-5.91-3.29c-1.95-1.14-3.67-2.51-5.48-3.8s-3.44-2.74-5-4.25a102.45,102.45,0,0,1-8.87-9.33,182.9,182.9,0,0,1-14.75-20.89c-.88-1.45-1.8-2.88-2.66-4.34l-2.52-4.39c-.86-1.46-1.6-2.95-2.4-4.43s-1.58-2.92-2.31-4.57l-2.22-4.81c-.69-1.62-1.27-3.28-1.9-4.92l-.92-2.48c-.27-.83-.51-1.67-.77-2.51-.49-1.68-1-3.36-1.45-5.05a105,105,0,0,1-2.94-20.42,96,96,0,0,1,1.31-19.81,95,95,0,0,1,8.31-25.55c3.48-7.23,7.35-13.71,11.55-20.9,2.91-5.06,5.78-10.78,8.89-16.66s6.44-11.92,10.15-17.54c1.46-2.21,3.35-3.65,5.36-5.57a81.12,81.12,0,0,1-3.95,9.44c-1.43,2.84-3,5.47-4.65,8.2-3.32,5.46-7.33,11.31-11.17,20.29-1.11,2.44-3.64,4-4.66,5.71,1.56-3.56,1.75-4,1.15-2.76s-2,4.31-3.49,7.87-3,7.61-4.11,10.82c-.58,1.59-1,3-1.31,4Z" fill="#000000" opacity="0.8"/></g></g></g><g opacity="0.8"><g opacity="0.8"><g id="change1_3"><path d="M539.47,194.59a131.1,131.1,0,0,0,6-33.78l.14-2.09,0-2.11.09-4.2c0-2.81-.1-5.64-.1-8.47-.2-5.74-.58-11.53-1.13-17.47-.31-3.4-.27-7-.34-10.62.1-5.57,1.11-9,.81-13.69a145.44,145.44,0,0,0-6.24-29.77,121.13,121.13,0,0,0-5.62-14.32,102.94,102.94,0,0,0-7.5-13.42c-5.63-8.5-12.72-16.12-21.15-21.22a49,49,0,0,0-6.51-3.28,40.45,40.45,0,0,0-6.86-2.1A37,37,0,0,0,477,17.8a52.54,52.54,0,0,0-20.78,8.83c-1.61,1.1-3.16,2.23-4.75,3.53s-3.21,2.48-4.7,3.84c-3.07,2.62-6,5.38-8.83,8.23a136.55,136.55,0,0,0-27,39.54,162.07,162.07,0,0,0-12.94,47,207.21,207.21,0,0,0,.13,50.26,246.79,246.79,0,0,0,5.14,28.33c.59,2.31,1.1,4.63,1.76,6.91l.94,3.43.47,1.71c.17.56.35,1.08.53,1.63a87.82,87.82,0,0,0,4.83,12.49l1.44,3c.52.95,1.1,1.86,1.64,2.79a57.15,57.15,0,0,0,3.54,5.28c.59.87,1.33,1.6,2,2.41a22.49,22.49,0,0,0,2.08,2.27l2.18,2.12,2.33,1.9a42,42,0,0,0,22,8.43,70.49,70.49,0,0,0,15.3.05c2.57-.23,5.17-.58,7.81-1s5.33-.95,8.07-1.56c1.16-.18,2.49-.36,3.76-.47.63-.06,1.25-.11,1.81-.13a5.84,5.84,0,0,1,1.44,0c1,0,1.78.12,2,.49.11.19.07.43-.13.74a2.9,2.9,0,0,1-.42.52l-.62.59a45.67,45.67,0,0,1-7.79,4.93,59.61,59.61,0,0,1-9.75,4,76.89,76.89,0,0,1-23.47,3.54A58,58,0,0,1,435,272a51.51,51.51,0,0,1-5.86-1.72c-1-.36-2-.63-2.89-1.08l-2.83-1.29a59.12,59.12,0,0,1-19.76-16,89.08,89.08,0,0,1-13.32-23.09c-.43-1.1-.85-2.2-1.28-3.29-.2-.55-.42-1.11-.61-1.64l-.51-1.57c-.67-2.09-1.33-4.17-1.92-6.26s-1.11-4.19-1.62-6.28-.91-4.2-1.33-6.29a183.28,183.28,0,0,1-2.94-25.2,234,234,0,0,1,.21-25.26c.48-8.45,1.33-16.95,2.47-25.6a245.31,245.31,0,0,1,4.2-24.46,201,201,0,0,1,6.6-23,153,153,0,0,1,9.68-22A140.28,140.28,0,0,1,417,37.09c5.89-6.92,13.5-12.44,18.25-14.31,1.17-.57,2.17-1,3-1.34s1.67-.53,2.36-.72c1.39-.36,2.47-.57,3.63-.95a25,25,0,0,0,4.22-1.92c1.82-1,4.14-2.42,7.63-4.32a68.36,68.36,0,0,1,14-6.14l1.82-.55,1.85-.45c1.23-.33,2.49-.52,3.74-.77A52.78,52.78,0,0,1,485.13,5a50.23,50.23,0,0,1,15.55,2.29,55.86,55.86,0,0,1,7.55,3,57.16,57.16,0,0,1,7.2,4.23,84.59,84.59,0,0,1,19.22,19.26,132.07,132.07,0,0,1,13,22.14c7.17,15.32,12.13,31.38,16,48.8a185.32,185.32,0,0,1,3.54,20.79,156.81,156.81,0,0,1,1,21c-.29,14-2.59,27.92-7.68,40.35a91.83,91.83,0,0,1-14.17,24.08,177.43,177.43,0,0,1-17.15,18c-4.39,4.16-9.05,8.85-14.13,13.46a131.93,131.93,0,0,1-16.43,12.82c-2.34,1.49-4.63,2-7.41,3,5.48-5.47,12.16-12.08,18.68-19.42,3.26-3.67,6.5-7.52,9.61-11.44s6-8,8.82-11.93c1.5-2.21,2.75-2.78,4-4.27C536,205.83,537.64,200.2,539.47,194.59Z" fill="#000000" opacity="0.8"/></g><g id="change2_3"><path d="M539.31,199.42a115.48,115.48,0,0,0,4.77-17,147.48,147.48,0,0,0,2.44-16.91c.4-5.66.69-11.29.6-17s-.27-11.62-.67-17.61c-.22-3.43-.12-7.06-.09-10.73.22-5.6,1.33-9.1,1.12-13.79A149.67,149.67,0,0,0,542,76.05a121.65,121.65,0,0,0-12.36-28.64c-5.41-8.9-12.21-17.1-20.54-23.07a48.54,48.54,0,0,0-13.44-6.86A39.66,39.66,0,0,0,481,15.65,49.19,49.19,0,0,0,459,22.78a75.23,75.23,0,0,0-9.73,6.89l-2.38,1.89-2.28,2-2.29,2c-.75.68-1.46,1.4-2.19,2.09a136.54,136.54,0,0,0-28.4,38.56,157.32,157.32,0,0,0-14.39,46.32,202.7,202.7,0,0,0-1.2,50.24,241.82,241.82,0,0,0,4.5,28.57c.52,2.34,1,4.67,1.62,7s1.13,4.62,1.79,6.9,1.24,4.63,2,6.75,1.37,4.37,2.28,6.43l1.26,3.13c.43,1,1,2,1.45,3s.94,2,1.49,3l1.68,2.82.83,1.4L416,243l1.87,2.62,2.06,2.42c.36.39.66.83,1.05,1.18l1.12,1.1,1.11,1.09.55.55.6.49,2.39,1.95,2.53,1.72.63.43.67.37,1.33.73a43.17,43.17,0,0,0,11.45,4.19c10.09,2.3,20.18,1.78,31.45.12,2.38-.19,6.8-1.05,10-1.69.79-.16,1.51-.3,2.1-.38a9.07,9.07,0,0,1,1.34-.1c.35,0,.53.11.47.32a1.12,1.12,0,0,1-.25.4l-.27.27a2.48,2.48,0,0,1-.28.27,56.08,56.08,0,0,1-17.6,8.9,77,77,0,0,1-23.54,3.5,57.68,57.68,0,0,1-11.93-1.42l-3-.77c-1-.23-1.93-.64-2.91-1a51.19,51.19,0,0,1-5.74-2.4,59.35,59.35,0,0,1-19.77-16.1,89.55,89.55,0,0,1-13.32-23.16,120.87,120.87,0,0,1-4.31-12.77c-.57-2.09-1.1-4.19-1.62-6.28s-.9-4.2-1.32-6.29A181.86,181.86,0,0,1,380,178.13a234.37,234.37,0,0,1,.21-25.28c.49-8.46,1.35-17,2.49-25.62a242.83,242.83,0,0,1,4.22-24.48,203.45,203.45,0,0,1,6.62-23.06,152.2,152.2,0,0,1,9.71-22,140.08,140.08,0,0,1,13.7-20.82c5.91-6.92,13.52-12.45,18.29-14.32,1.17-.57,2.16-1,3-1.33s1.66-.53,2.35-.7c1.37-.36,2.43-.55,3.57-.91a23.09,23.09,0,0,0,4.17-1.89c1.81-1,4.12-2.41,7.61-4.32a69.09,69.09,0,0,1,14-6.18,52.28,52.28,0,0,1,15.12-2.45,50,50,0,0,1,15.61,2.27,55.32,55.32,0,0,1,14.79,7.25,84.81,84.81,0,0,1,19.29,19.28A133.22,133.22,0,0,1,547.8,55.75a198.68,198.68,0,0,1,9.25,23.64c2.62,8.12,4.86,16.48,6.77,25.21a185.67,185.67,0,0,1,3.54,20.81,155.33,155.33,0,0,1,1,21c-.29,14-2.58,27.94-7.67,40.4a91.94,91.94,0,0,1-14.17,24.12,177.7,177.7,0,0,1-17.15,18c-4.4,4.17-9.06,8.87-14.15,13.49a130.8,130.8,0,0,1-16.44,12.85c-2.32,1.48-4.63,2-7.4,3,5.47-5.5,11.43-11.12,17.59-17.31A194.43,194.43,0,0,0,527.34,220c1.63-2.15,2.85-2.74,4.2-4.2C535.36,210.64,537.31,205.05,539.31,199.42Z" fill="#000000" opacity="0.8"/></g><g id="change3_3"><path d="M539.06,207.69a133.36,133.36,0,0,0,9.32-34.25,221.27,221.27,0,0,0,1.55-35.19c-.09-3.5.16-7.19.32-10.91.44-5.7,1.67-9.2,1.65-14A174.36,174.36,0,0,0,548,82.9,138.69,138.69,0,0,0,538.24,54,95.49,95.49,0,0,0,520.9,28.25a64.82,64.82,0,0,0-12.41-10.06A49.31,49.31,0,0,0,493.41,12a47.1,47.1,0,0,0-12.76-1.08,49.66,49.66,0,0,0-12.34,2.38A66.57,66.57,0,0,0,447,25.36,137.93,137.93,0,0,0,415.1,61.05a152.16,152.16,0,0,0-18.39,44.42,189.53,189.53,0,0,0-5.09,50.12A246.06,246.06,0,0,0,400.2,213l1.93,6.91c.69,2.28,1.46,4.48,2.18,6.72s1.74,4.34,2.59,6.5l1.54,3.12a33,33,0,0,0,1.59,3.07,61.8,61.8,0,0,0,3.66,5.81c.67.91,1.26,1.9,2,2.75l2.18,2.59A50.75,50.75,0,0,0,428,259.11a46.31,46.31,0,0,0,17.63,6.58,84,84,0,0,0,10,.88c3.3,0,6.48,0,9.4-.11a65.28,65.28,0,0,0,13.23-1.86c4.74-1.07,8.19-2.1,5.92-.49a59.06,59.06,0,0,1-18.46,8.05,76.51,76.51,0,0,1-12.06,1.95c-2,.22-4,.21-6.08.26s-4.07-.1-6.1-.37A55.17,55.17,0,0,1,418,266a65.42,65.42,0,0,1-18.59-18.05,101.75,101.75,0,0,1-12.12-24,161.4,161.4,0,0,1-9.22-50.75A281.39,281.39,0,0,1,381.83,122a222.24,222.24,0,0,1,12.28-47.68A149.63,149.63,0,0,1,419.22,31.9c1.59-1.66,3.25-3.27,4.9-4.78s3.44-2.8,5.1-4a51.7,51.7,0,0,1,4.84-3.05c.75-.43,1.47-.82,2.15-1.16s1.36-.59,2-.82a28,28,0,0,1,5.21-1.75c1.27-.25,2.17-.31,3.15-.54a16.54,16.54,0,0,0,3.78-1.48c1.73-.84,4.05-2.18,7.74-4a66.67,66.67,0,0,1,14.82-5.56,56.61,56.61,0,0,1,7.81-1.33,54.56,54.56,0,0,1,8-.15,55.79,55.79,0,0,1,30.58,11.59,91.21,91.21,0,0,1,18.86,20.28,139.6,139.6,0,0,1,12.66,22.73,205.65,205.65,0,0,1,8.88,24c2.51,8.24,4.61,16.71,6.41,25.54A175.66,175.66,0,0,1,570,149.69c0,3.54-.42,7.07-.76,10.57-.14,1.75-.48,3.49-.74,5.22s-.51,3.47-.91,5.17c-.76,3.42-1.51,6.81-2.59,10.09a98,98,0,0,1-3.48,9.66,92.38,92.38,0,0,1-14.81,24.14A175.53,175.53,0,0,1,529,232.37c-4.51,4.15-9.34,8.81-14.6,13.37-1.29,1.16-2.67,2.25-4,3.39s-2.75,2.23-4.18,3.28a105,105,0,0,1-8.75,6c-2.4,1.44-4.74,1.91-7.57,2.81,2.86-2.65,5.64-5.17,8.45-7.6s5.67-4.8,8.61-7.31a148,148,0,0,0,18.72-18.2,33.68,33.68,0,0,1,4.53-4.06C534.36,218.94,536.64,213.3,539.06,207.69Z" fill="#000000" opacity="0.8"/></g><g id="change4_3"><path d="M544.12,210.81a68.41,68.41,0,0,0,2.51-6.58,60,60,0,0,0,1.72-6c1-3.83,1.57-7.51,2.21-11.49.28-2,.58-4.07.89-6.31s.6-4.63.89-7.25c.14-1.31.29-2.68.44-4.12.09-.71.18-1.44.26-2.19s.13-1.53.19-2.32c.15-1.58.31-3.23.47-5s.22-3.57.35-5.5c.16-1.77.3-3.6.52-5.45s.55-3.73.75-5.64c.89-5.77,2.41-9.26,2.76-14.16a187.23,187.23,0,0,0-1.44-31.45,158.28,158.28,0,0,0-7.1-30.62,121.2,121.2,0,0,0-14.23-28.92,89.36,89.36,0,0,0-10.68-13,68.73,68.73,0,0,0-13.76-10.76A52.63,52.63,0,0,0,461,10.81a72,72,0,0,0-10.23,5.53c-1.61,1-3.13,2.12-4.65,3.22l-4.29,3.36a140.69,140.69,0,0,0-29.15,31.65,140.13,140.13,0,0,0-11,19.48,161.47,161.47,0,0,0-13.54,47.35,207.62,207.62,0,0,0-1.82,29,238.34,238.34,0,0,0,1.74,27.24c1.08,8.91,2.6,17.74,4.6,26.69l.75,3.37c.27,1.12.55,2.24.83,3.37l.84,3.4c.31,1.13.62,2.26.93,3.41s.63,2.28.94,3.43.73,2.32,1.1,3.48.75,2.33,1.12,3.51.9,2.32,1.35,3.49a40.94,40.94,0,0,0,2.17,5.05,57.51,57.51,0,0,0,3.28,5.95c.65,1,1.3,2.09,2,3.16l2.35,3.11a32.27,32.27,0,0,0,2.58,3,34.67,34.67,0,0,0,2.77,2.92c1,.91,1.93,1.87,2.95,2.72l3.09,2.44c1.06.75,2.14,1.43,3.17,2.13l.77.52.8.44,1.57.88a86.65,86.65,0,0,0,10.89,4.89,14.64,14.64,0,0,0,3.21,1c.77.16,1.62.35,2.55.5l3,.36a65,65,0,0,0,14.31-.46,95.35,95.35,0,0,0,12-2.52c2.84-.75,4.19-1.11,3-.41a62.4,62.4,0,0,1-6.61,3.25c-1.09.45-2.25.83-3.57,1.26s-2.83.8-4.61,1.13a72,72,0,0,1-12.1,1.35c-2,.09-4,0-6-.09-1-.05-2-.2-2.95-.29a28.87,28.87,0,0,1-2.94-.41l-2.92-.53c-1-.23-1.91-.5-2.87-.75a57.47,57.47,0,0,1-5.65-1.87c-.94-.35-1.82-.81-2.73-1.21s-1.85-.81-2.7-1.31l-2.61-1.51-1.31-.76-1.23-.87A66.7,66.7,0,0,1,399,247.41,102.67,102.67,0,0,1,387.27,224c-6.12-16.81-8.8-34.28-9.3-51.67a275.81,275.81,0,0,1,4.13-52.14,233.78,233.78,0,0,1,5.15-24.56,196.14,196.14,0,0,1,7.64-23c.79-1.86,1.52-3.73,2.36-5.56l2.57-5.49q1.41-2.7,2.83-5.4c1-1.8,2-3.54,3.05-5.32a141.43,141.43,0,0,1,14.84-20.35c6.31-6.72,14.22-11.91,19.12-13.59,1.2-.52,2.19-1,3-1.35s1.63-.74,2.27-1.07a26.33,26.33,0,0,0,3.24-2c1-.78,2.23-1.66,4.09-2.91a50,50,0,0,1,8.53-4.4,54.85,54.85,0,0,1,15.91-4.06,53.09,53.09,0,0,1,15.6.83A61.05,61.05,0,0,1,507,7a78.55,78.55,0,0,1,13.8,8.9,93.89,93.89,0,0,1,18.45,20.61,142.77,142.77,0,0,1,12.35,22.89c6.78,15.72,11.36,32.05,14.82,49.73a190,190,0,0,1,3.07,21.07,157,157,0,0,1,.52,21.25c0,1.77-.2,3.54-.35,5.3s-.3,3.52-.52,5.27-.53,3.49-.79,5.23c-.15.86-.27,1.73-.44,2.59l-.56,2.57c-.39,1.71-.76,3.41-1.19,5.09s-1,3.34-1.49,5-1.08,3.27-1.7,4.88-1.19,3.2-1.9,4.75a93.87,93.87,0,0,1-15.12,24A179.43,179.43,0,0,1,528,233.79c-4.58,4.08-9.45,8.7-14.77,13.2a127,127,0,0,1-17.13,12.45,16.88,16.88,0,0,1-3.64,1.55c-1.22.38-2.6.74-3.88,1.06,1.32-1.19,2.77-2.45,4.08-3.57s2.64-2.19,3.94-3.19c2.58-2,5.17-3.8,7.88-5.72s5.59-3.88,8.65-6.34a81.53,81.53,0,0,0,9.79-9.1c1.95-2,4.88-2.8,6.47-4.13-2.75,3-3.1,3.41-2.07,2.35l2.44-2.59c1-1.18,2.29-2.59,3.59-4.14,2.57-3.11,5.35-6.75,7.36-9.69l2.47-3.65Z" fill="#000000" opacity="0.8"/></g></g></g><g opacity="0.8"><g opacity="0.8"><g id="change1_4"><path d="M340.12,93.29,341.88,98c.61,1.54,1.07,3.12,1.61,4.67,1.1,3.1,1.95,6.24,2.87,9.34.46,1.56.8,3.13,1.2,4.69s.82,3.12,1.11,4.69c.61,3.14,1.34,6.28,1.77,9.45l.72,4.76c.21,1.59.35,3.18.52,4.79s.36,3.21.44,4.82.17,3.24.25,4.87a165.7,165.7,0,0,1-.28,19.76A72.33,72.33,0,0,1,350,181.66c-1.75,6.07-4,9.35-5.68,14.2a197.81,197.81,0,0,1-12.64,31.24,121.23,121.23,0,0,1-19.73,28.4A77.89,77.89,0,0,1,298.2,267a61.32,61.32,0,0,1-16.6,7.65c-1.47.45-3,.77-4.49,1.11s-3,.55-4.57.7a55.66,55.66,0,0,1-9.21.35c-1.54,0-3.05-.21-4.58-.34s-3-.38-4.5-.69a73.47,73.47,0,0,1-8.77-2.19,92,92,0,0,1-24.34-12.46A129.65,129.65,0,0,1,210.66,253c-.83-.73-1.66-1.43-2.48-2.17l-2.4-2.31-2.39-2.32c-.78-.78-1.63-1.5-2.34-2.36l-4.39-5-1.09-1.25-1-1.32-2-2.64-2-2.64c-.69-.86-1.22-1.83-1.84-2.74l-3.55-5.55a147.28,147.28,0,0,1-11-23.74,173,173,0,0,1-6.42-25.17A206.52,206.52,0,0,1,165.28,148a245.12,245.12,0,0,1,.77-26.1q1.23-13.08,3.78-26.21a226.18,226.18,0,0,1,7.78-29.07A160.37,160.37,0,0,1,189.82,39c1.3-2.21,2.54-4.44,4-6.57.73-1.08,1.42-2.17,2.19-3.24l2.41-3.14c.41-.52.79-1.06,1.24-1.57L201.05,23c.93-1,1.76-2,2.78-3l3.09-2.87c1-.95,2.07-1.7,3.11-2.56A76.08,76.08,0,0,1,223.88,5.8,60.54,60.54,0,0,1,240.29.58a53.14,53.14,0,0,1,21.37,1.19,54,54,0,0,1,18.86,9.35,29.06,29.06,0,0,1,3.42,3.42c.53.62,1,1.26,1.46,1.89.22.31.42.61.61.93.1.15.19.31.28.46s.16.29.32.52c.39,1,.51,1.71.23,2-.13.16-.37.22-.73.14a4.27,4.27,0,0,1-.64-.21l-.38-.19c-.11,0-.39-.25-.55-.34-1.47-.87-2.93-1.6-4.5-2.35s-3.2-1.47-4.91-2.12A76,76,0,0,0,264.6,12a45,45,0,0,0-23.07.4,47,47,0,0,0-9.94,4.14,60.51,60.51,0,0,0-8.63,6c-.69.53-1.32,1.16-2,1.73s-1.31,1.13-1.92,1.78a43.85,43.85,0,0,0-3.53,3.75L214,31.67l-1.47,2.08c-.48.71-1,1.33-1.45,2.1s-.9,1.48-1.35,2.23a116.12,116.12,0,0,0-9.14,19.85c-2.68,7.44-5.14,14.73-7.49,22s-4.43,14.49-6.36,21.79-3.44,14.69-4.64,22.23A150.3,150.3,0,0,0,180.41,147a129.36,129.36,0,0,0,8.12,42,120.08,120.08,0,0,0,8.67,18.33c1.83,2.84,3.45,5.82,5.54,8.51,1,1.37,1.94,2.81,3,4.14l3.29,4c1,1.52,2.27,2.9,3.34,4.37.54.72,1.06,1.45,1.56,2.18l.74,1.09c.24.36.52.68.77,1,1,1.34,1.92,2.65,2.69,3.88.39.62.75,1.22,1.06,1.79s.66,1.09.92,1.59a44.46,44.46,0,0,1,2.46,4.57,31.37,31.37,0,0,0,1.48,3.11,13.54,13.54,0,0,0,2.68,3.23,38.86,38.86,0,0,0,6.29,4.63,61.51,61.51,0,0,0,24.14,8.3,49.8,49.8,0,0,0,24.18-3.26,54,54,0,0,0,18.26-12,83,83,0,0,0,13.6-17.76,110.64,110.64,0,0,0,9.35-21,130.56,130.56,0,0,0,5.37-23.34A261,261,0,0,0,329.69,148c-.05-6.26-.48-12.41-.87-18.5-.32-3-.44-6.06-.81-9-.15-1.5-.29-3-.43-4.49s-.36-3-.51-4.46C326,102,325,94,323.65,86.18a121.11,121.11,0,0,0-6-23.41,83,83,0,0,0-9.75-17.36,152.68,152.68,0,0,0-14-16.64c-2-2.09-3.16-4.3-5.26-6.81,7.63,3.92,15.92,10.44,23.33,18.66A114.68,114.68,0,0,1,322.28,54a120.71,120.71,0,0,1,8.17,14.66c1.2,2.77,1.14,4.22,1.69,6.32C334.58,81.51,337.65,87.11,340.12,93.29Z" fill="#000000" opacity="0.8"/></g><g id="change2_4"><path d="M336.86,89.12A176.69,176.69,0,0,1,348.22,126a159.24,159.24,0,0,1,2.58,38.7,70.75,70.75,0,0,1-1.86,11.78c-1.6,6-3.77,9.35-5.32,14.19A207.31,207.31,0,0,1,332,221.82a129.74,129.74,0,0,1-18.11,28.69,83,83,0,0,1-12.55,12,62.66,62.66,0,0,1-7.32,4.9,57,57,0,0,1-25.45,7.65,61.85,61.85,0,0,1-17.66-1.71A84,84,0,0,1,226.3,262.5a125.34,125.34,0,0,1-10.62-7.62A112.33,112.33,0,0,1,206,246.3a121.29,121.29,0,0,1-8.82-9.46c-1.35-1.67-2.61-3.41-3.91-5.12-.64-.86-1.31-1.7-1.92-2.58l-1.75-2.69a123.11,123.11,0,0,1-11.77-22.66c-6.34-15.79-9.63-32.58-10.79-49.58a224.11,224.11,0,0,1,2.82-51.83,232.16,232.16,0,0,1,6.8-29.1,176.64,176.64,0,0,1,10.9-27.74c1.18-2.22,2.25-4.49,3.58-6.65l1.93-3.29c.67-1.08,1.41-2.14,2.11-3.21,1.37-2.17,3-4.21,4.61-6.29.78-1.05,1.74-2,2.61-3a35.33,35.33,0,0,1,2.82-2.94c1-.93,2-1.91,3-2.81l3.08-2.47a78,78,0,0,1,6.61-4.56,64.43,64.43,0,0,1,15.12-6.91,50.6,50.6,0,0,1,40.38,5.14c1.21.83,3,2,4.72,3.36a46,46,0,0,1,4.9,4.37,22.61,22.61,0,0,1,1.77,2,6.48,6.48,0,0,1,1,1.56c.11.33.07.53-.14.55a1,1,0,0,1-.47-.1l-.34-.15c-.19-.13-.36-.23-.55-.34A70.1,70.1,0,0,0,275,15.39a76,76,0,0,0-10.51-3.26,45,45,0,0,0-23,.46,48.24,48.24,0,0,0-9.89,4.15,62.54,62.54,0,0,0-8.6,6c-.68.54-1.31,1.16-2,1.73s-1.31,1.14-1.91,1.78l-1.85,1.85-.46.46-.4.48-.8.95c-.52.64-1.06,1.24-1.57,1.89L212.54,34c-1,1.32-1.88,2.84-2.78,4.31a118.34,118.34,0,0,0-9.11,19.85c-2.66,7.43-5.11,14.72-7.46,22s-4.41,14.48-6.34,21.77-3.43,14.68-4.63,22.21a150.26,150.26,0,0,0-1.63,23.07,129.1,129.1,0,0,0,8.14,42,120.7,120.7,0,0,0,8.67,18.3c1.83,2.83,3.46,5.79,5.54,8.48l1.49,2.08A23.36,23.36,0,0,0,206,220l3.28,4c1,1.53,2.27,2.89,3.33,4.36.54.73,1.06,1.46,1.56,2.18l.73,1.09.78,1c1,1.34,1.92,2.65,2.69,3.89.39.61.75,1.21,1.06,1.78s.66,1.09.93,1.59a42.34,42.34,0,0,1,2.43,4.54,27.56,27.56,0,0,0,1.43,3.06,13,13,0,0,0,2.62,3.2,39.22,39.22,0,0,0,6.26,4.61,61.53,61.53,0,0,0,24.07,8.3,49.54,49.54,0,0,0,24.09-3.21,53.72,53.72,0,0,0,18.22-11.95A83,83,0,0,0,313,230.72a111.51,111.51,0,0,0,9.34-21,131.1,131.1,0,0,0,5.37-23.31,262,262,0,0,0,1.78-38.33c0-6.25-.49-12.4-.87-18.48-.32-3-.43-6.06-.8-9-.15-1.5-.29-3-.43-4.48s-.35-3-.5-4.46c-1.11-9.55-2.11-17.57-3.4-25.34a121,121,0,0,0-6-23.39,83.49,83.49,0,0,0-9.73-17.34A152.28,152.28,0,0,0,293.82,29c-2-2.08-3.15-4.29-5.23-6.8,15.2,7.92,28.29,23.54,38,42.86a28.5,28.5,0,0,1,1.84,6.21C331.07,77.63,334.25,83.09,336.86,89.12Z" fill="#000000" opacity="0.8"/></g><g id="change3_4"><path d="M330.86,82.73c2.87,5.84,5.31,11.71,7.53,17.59,1,3,2.11,5.91,2.94,8.92l1.32,4.49,1.13,4.54.56,2.28c.18.76.31,1.53.47,2.29l.9,4.62c.31,1.54.49,3.1.73,4.67s.47,3.13.63,4.71a161.42,161.42,0,0,1,.91,19.44,70.08,70.08,0,0,1-1.44,11.65c-1.37,6-3.41,9.31-4.75,14.13a198.26,198.26,0,0,1-10,30.22,144.08,144.08,0,0,1-15.05,27.24c-6,8.4-13.22,16.08-22,21.83a56.63,56.63,0,0,1-14.22,6.75,52.91,52.91,0,0,1-15.92,2.29,62.15,62.15,0,0,1-24.4-5.83,91.92,91.92,0,0,1-10.86-5.84c-3.46-2.19-6.77-4.54-10-7-1.56-1.27-3.16-2.51-4.67-3.84-.76-.66-1.54-1.29-2.27-2l-2.18-2.08c-1.43-1.4-2.91-2.75-4.3-4.18l-4-4.46a53.77,53.77,0,0,1-3.75-4.63l-1.82-2.36a29.48,29.48,0,0,1-1.74-2.41l-3.26-5-.81-1.24-.72-1.3-1.45-2.6c-2-3.4-3.6-7.06-5.33-10.63-.79-1.82-1.48-3.69-2.23-5.53l-1.1-2.78-.93-2.84a151,151,0,0,1-5.87-23.39c-.32-2-.64-4-1-6s-.45-4.07-.68-6.11c-.1-1-.25-2.05-.31-3.08s-.14-2.07-.2-3.1l-.21-3.11c-.08-1-.13-2.08-.14-3.13q-.06-3.14-.14-6.3c0-2.11.07-4.23.09-6.36s.14-4.27.26-6.42.2-4.32.44-6.48a228.5,228.5,0,0,1,4.28-29,211,211,0,0,1,8-28,143.36,143.36,0,0,1,12.6-26.51L198,33.73l1-1.56,1.14-1.51,2.32-3c.83-1,1.7-1.92,2.56-2.88.43-.48.84-1,1.31-1.44L207.8,22l1.45-1.35L210,20l.74-.6,3-2.4,3.17-2.25c1.36-.88,2.85-1.76,4.39-2.67s3.2-1.78,5-2.54,3.6-1.54,5.48-2.25a57.88,57.88,0,0,1,5.91-1.64,46.84,46.84,0,0,1,12.2-1.06,40.9,40.9,0,0,1,11,2c1.31.54,3.66,1.31,6.2,2.46a56.94,56.94,0,0,1,7.61,4c4.62,2.95,7.44,5.84,4.67,4.58a87.15,87.15,0,0,0-9.43-3.33,71.37,71.37,0,0,0-10.47-2.19,43.56,43.56,0,0,0-22.12,2.76,56.06,56.06,0,0,0-17.2,11.49l-1.82,1.84-.9.91c-.29.31-.53.63-.79.94l-1.54,1.84-.38.46-.36.51-.71,1-1.42,2c-.43.73-.87,1.45-1.31,2.18l-1.31,2.17-1.2,2.31a134.72,134.72,0,0,0-8.28,20.14c-2.43,7.48-4.7,14.78-6.79,22-.58,1.8-1.06,3.63-1.56,5.44s-1.07,3.6-1.51,5.43l-1.44,5.43c-.44,1.82-.87,3.64-1.31,5.46a206.81,206.81,0,0,0-4.08,22.13l-.37,2.81-.24,2.83c-.14,1.89-.36,3.8-.42,5.7l-.15,5.75c-.07,1.93.08,3.85.13,5.79.1,3.79.64,7.46,1,11.08q.45,2.69.9,5.33c.15.89.31,1.76.46,2.64s.41,1.72.61,2.57c.41,1.71.79,3.42,1.23,5.1s1,3.3,1.5,4.94c.26.82.49,1.65.77,2.45l.9,2.38,1.8,4.73,2.08,4.57,1,2.28,1.18,2.19,2.35,4.39,2.65,4.21,1.31,2.11,1.46,2c1,1.34,1.95,2.69,2.92,4.05l3.22,3.87,1.61,2,1.76,1.84c1.2,1.35,2.31,2.8,3.4,4.22s2.27,2.69,3.27,4q.75,1,1.41,2c.49.63.95,1.25,1.38,1.85.85,1.21,1.58,2.3,2.13,3.27A29,29,0,0,1,227,245.8c.44,1,.66,1.8,1.08,2.57a9.44,9.44,0,0,0,2.24,2.67c.62.53,1.39,1.14,2.37,1.85s2.19,1.48,3.69,2.31a56,56,0,0,0,23.6,7.06,47.15,47.15,0,0,0,22.84-4.5A50.7,50.7,0,0,0,292,252.4a62.32,62.32,0,0,0,8-7.15,85.64,85.64,0,0,0,12.82-17.84,123.41,123.41,0,0,0,13.71-44.12c.72-6.36,1.11-12.76,1.31-19.12.07-3.19.13-6.36.11-9.52v-2.37l-.07-2.34c0-1.55-.07-3.1-.1-4.65s-.17-3.08-.23-4.61-.1-3.07-.26-4.58c-.25-3-.4-6.06-.74-9-.49-6-1.28-11.88-2-17.74-1.28-9.41-2.4-17.33-3.8-25a118.48,118.48,0,0,0-6.35-23,81.55,81.55,0,0,0-9.93-17,144.71,144.71,0,0,0-14.12-16.16c-2.05-2-3.19-4.15-5.36-6.59a49.86,49.86,0,0,1,10.35,6.59A67.55,67.55,0,0,1,304,36.69a143.3,143.3,0,0,1,15.56,23c1.44,2.54,1.41,4,2.1,6C324.54,71.83,328,77,330.86,82.73Z" fill="#000000" opacity="0.8"/></g><g id="change4_4"><path d="M325.22,84.57c1,2.22,2.1,4.21,3,6.12s1.84,3.7,2.69,5.45l2.5,5.2,2.35,5.4A99.09,99.09,0,0,1,340.17,120c.38,1.31.64,2.7.94,4.16l.89,4.61c.21,1.63.44,3.34.67,5.14.11.9.23,1.82.32,2.77s.13,1.93.2,2.93a46.88,46.88,0,0,1,0,5.69c-.14,1.94-.34,3.9-.54,5.85-.9,5.94-2.71,9.32-3.66,14.11a217.59,217.59,0,0,1-7.36,30.15,175.3,175.3,0,0,1-11.57,27.81A124,124,0,0,1,312.43,236a94.39,94.39,0,0,1-9.23,11.53c-6.72,7.13-14.77,13.07-24.15,16.15a45,45,0,0,1-21.95,1.3,66,66,0,0,1-19.68-7.23,102.29,102.29,0,0,1-8.7-5.41c-2.76-2-5.46-4-8-6.14a96.64,96.64,0,0,1-7.37-6.7c-1.16-1.16-2.37-2.27-3.49-3.45l-3.23-3.7L205,230.46c-.55-.6-1-1.29-1.5-1.93l-3-3.93-.75-1c-.23-.33-.44-.69-.67-1l-1.34-2.08c-.88-1.4-1.82-2.76-2.67-4.19l-2.42-4.4-1.22-2.21-1.08-2.3q-1.08-2.31-2.19-4.65c-.68-1.59-1.28-3.22-1.94-4.85-1.39-3.22-2.35-6.67-3.54-10.1-.54-1.74-1-3.53-1.47-5.32-.24-.9-.49-1.8-.74-2.71s-.4-1.84-.61-2.77q-.6-2.79-1.22-5.64t-1-5.84c-.37-2-.56-4-.81-6s-.54-4.1-.65-6.21c-.16-2.38-.4-4.73-.48-7.07s-.15-4.64-.22-6.93,0-4.55.07-6.8c0-1.12,0-2.24.11-3.35s.12-2.22.17-3.33a213,213,0,0,1,9.2-51.23,163.17,163.17,0,0,1,10.2-25.52c2.79-5.27,7.44-14.69,14.55-22.53l2.79-2.8c1-.88,2-1.71,3-2.55a58.88,58.88,0,0,1,6.1-4.36,38.75,38.75,0,0,1,11.06-4.89c1.28-.21,4.54-1.35,8.86-2.12a55.2,55.2,0,0,1,7.1-.79,51.41,51.41,0,0,1,7.64.32,49.76,49.76,0,0,1,12.49,3.19c2.87,1.21,4.12,2,2.68,1.64a73.35,73.35,0,0,0-7.4-1.34c-2.34-.28-4.81-.63-8.28-.82a43.46,43.46,0,0,0-21.09,4.14,55.42,55.42,0,0,0-8.46,5.11A65.22,65.22,0,0,0,219,27.62l-1.7,1.71-1.45,1.75c-.47.59-1,1.09-1.42,1.76s-.89,1.27-1.34,1.91c-.93,1.21-1.72,2.64-2.56,4s-1.6,2.83-2.37,4.29a134.16,134.16,0,0,0-8.07,19.68c-2.43,7.48-4.75,14.87-6.87,22.3s-4.2,14.81-5.89,22.31a225.92,225.92,0,0,0-4,22.72c-.27,1.91-.36,3.83-.55,5.75l-.23,2.89c-.08,1-.08,1.92-.12,2.89,0,1.93-.13,3.86-.14,5.8s.13,3.86.2,5.8a123.61,123.61,0,0,0,3.21,21.57c.72,3.45,1.85,6.72,2.82,10,.52,1.63,1.17,3.19,1.75,4.79s1.15,3.17,1.89,4.68l2.08,4.57c.68,1.52,1.55,2.94,2.31,4.41,1.47,3,3.35,5.71,5.08,8.54a111.05,111.05,0,0,0,12.55,15.63c2.27,2.83,4.79,5.47,6.75,8.18,1,1.34,2.07,2.59,2.9,3.8A31.32,31.32,0,0,1,226,242.6c2.52,3.72,3.64,4.74,5.39,5.85s4.22,2.32,10,5.34c7.63,3.71,14.37,6,21.25,6.87a38.77,38.77,0,0,0,10.48-.11,36.33,36.33,0,0,0,11-3.49,57.44,57.44,0,0,0,16.86-13A87.76,87.76,0,0,0,313.42,226a115.86,115.86,0,0,0,8.54-21,132,132,0,0,0,4.71-23.23c.66-6.37,1-12.76,1.15-19.13.08-3.18.08-6.35.05-9.51,0-1.59-.09-3.13-.12-4.68s0-3.11-.15-4.64c-.22-3.08-.26-6.15-.58-9.18-.11-1.51-.23-3-.34-4.54s-.31-3-.47-4.49l-.2-2.24-.28-2.23-.51-4.44c-.45-2.93-.71-5.89-1.19-8.79-1.37-9.38-2.57-17.27-4-24.91A120.21,120.21,0,0,0,313.41,60c-4.72-11.09-14.1-22.86-24.42-32.81a28.58,28.58,0,0,1-2.68-3.1,35,35,0,0,0-2.87-3.44,41.4,41.4,0,0,1,9.8,6.12,51.64,51.64,0,0,1,7.24,7.47c2.21,2.73,4.34,5.73,6.6,9.14s4.69,7.23,7.47,11.67c1.5,2.47,1.21,5.6,1.92,7.51-1.88-3.6-2.15-4.07-1.5-2.74L316.56,63c.69,1.39,1.45,3.11,2.29,4.91s1.62,3.78,2.42,5.66l2.05,5.4Z" fill="#000000" opacity="0.8"/></g></g></g><g opacity="0.8"><g opacity="0.8"><g id="change1_1"><path d="M164.35,281.93l1.31,2.12,1.21,2.16c.79,1.44,1.61,2.86,2.38,4.3,1.43,2.91,3,5.76,4.22,8.71.64,1.47,1.29,2.93,1.93,4.39s1.15,3,1.73,4.45c1.21,2.95,2.09,6,3.11,9s1.72,6.08,2.56,9.15,1.39,6.21,2,9.34,1.08,6.25,1.47,9.45c.18,1.6.36,3.21.54,4.84.09.81.17,1.63.26,2.45s.11,1.64.16,2.47c.12,1.9.13,3.85.07,5.83s-.3,4-.49,6q-.15,1.15-.33,2.19c-.14.69-.3,1.36-.45,2-.31,1.27-.65,2.44-1,3.57-.61,2.26-1.34,4.37-1.82,6.85a205.66,205.66,0,0,1-7.78,32.11,143.62,143.62,0,0,1-14.32,30.51l-2.42,3.55c-.41.58-.79,1.18-1.22,1.76l-1.32,1.71c-.89,1.13-1.73,2.29-2.67,3.39l-2.87,3.25c-.92,1.11-2,2.08-3,3.12s-2,2.06-3.18,3l-3.34,2.85L137.53,469c-1.16.9-2.45,1.62-3.7,2.41a41.48,41.48,0,0,1-3.83,2.22c-1.32.66-2.63,1.36-4,2l-4.12,1.68-1,.42-1.06.34-2.12.67-2.12.67c-.71.22-1.44.34-2.16.52-1.45.31-2.9.67-4.35.94l-4.4.61a77.83,77.83,0,0,1-27.09-2l-6.4-1.8c-2.13-.71-4.24-1.55-6.35-2.34A32.81,32.81,0,0,1,61.75,474l-3-1.49a27.22,27.22,0,0,1-2.94-1.64l-2.88-1.76A82.58,82.58,0,0,1,33.3,451.2a111.41,111.41,0,0,1-13.6-22,162.57,162.57,0,0,1-9-23.83A226.31,226.31,0,0,1,5,380.67a350.5,350.5,0,0,1-4.9-50.95,256.73,256.73,0,0,1,.72-29.46A138.76,138.76,0,0,1,6.51,271a88.4,88.4,0,0,1,14.06-27.62,66.36,66.36,0,0,1,25.87-20.11,66.77,66.77,0,0,1,19.49-4.7,46.37,46.37,0,0,1,4.85-.27c1.61,0,3.24-.09,4.84,0s3.24.18,4.86.34,3.23.44,4.86.69a26.55,26.55,0,0,1,4.21,1.27,22.59,22.59,0,0,1,3.57,1.62c1.7,1.11,2.12,2.1-.71,2.39-5.84.56-13.34,1.21-20.32,2.41a64,64,0,0,0-21.58,7.39l-2.3,1.44c-.38.24-.76.46-1.13.71l-1.08.8L43.88,239l-2,1.72-1,.85-.92.92-1.8,1.83-1.66,1.95c-.28.33-.56.64-.82,1l-.76,1a57.47,57.47,0,0,0-5.34,8.56,77.71,77.71,0,0,0-3.95,9.38,101.19,101.19,0,0,0-2.78,10.06c-.75,3.48-1.34,7-1.81,10.72-.93,7.59-1.58,15-2.08,22.4s-.86,15-1.12,22.52c-.49,15.07-.52,30.25,2,45.66a155.83,155.83,0,0,0,5.21,21.31,128.59,128.59,0,0,0,7.74,19.05c6.08,11.87,13.73,22.49,23.8,30.33,1.21,1.2,2.57,2.18,3.79,3.31l.92.84a8.64,8.64,0,0,0,.92.8c.62.5,1.23,1,1.81,1.51s1.14,1,1.67,1.54l1.6,1.34a28.39,28.39,0,0,1,2.58,2.52,37.16,37.16,0,0,1,3.43,3.36,16.87,16.87,0,0,0,2.29,2.38,14.33,14.33,0,0,0,3.52,2,17.25,17.25,0,0,0,3,1c1.21.3,2.62.67,4.3,1a56.26,56.26,0,0,0,24.76-2,24,24,0,0,0,2.84-1c.93-.37,1.89-.69,2.81-1.1l2.73-1.32c.46-.22.92-.42,1.37-.66l1.33-.78,2.68-1.53,2.6-1.77,1.33-.88,1.27-1,2.6-2a75.43,75.43,0,0,0,14.9-16.47,97.44,97.44,0,0,0,10.18-19.76,123.21,123.21,0,0,0,7.84-45.26,275.41,275.41,0,0,0-3.65-37.55c-.26-1.5-.51-3-.77-4.51-.13-.75-.23-1.5-.37-2.24l-.46-2.22c-.28-1.49-.56-3-.85-4.44s-.65-2.91-1-4.36c-.57-2.93-1.38-5.75-2-8.63-.32-1.43-.76-2.82-1.11-4.24s-.68-2.84-1.11-4.22c-2.52-9-4.79-16.54-7.42-23.77a98,98,0,0,0-10.48-21.24A72.1,72.1,0,0,0,123,242.58a105.86,105.86,0,0,0-8.57-6.32c-3-2-6.09-3.89-9.24-5.63-2.53-1.39-4.23-3.15-7-4.89,8.4,1.37,18.21,5.17,27.49,11.14a95,95,0,0,1,24.5,22.78,16.62,16.62,0,0,1,1.8,3.08c.39.91.67,1.76,1.13,2.74C156.85,271.4,161,276.27,164.35,281.93Z" fill="#000000" opacity="0.8"/></g><g id="change2_1"><path d="M160.45,278.41c.94,1.36,1.75,2.77,2.63,4.14.43.7.86,1.38,1.29,2.07l1.2,2.11q1.19,2.1,2.35,4.2l2.16,4.26c.35.71.73,1.41,1.06,2.13l1,2.16L174,303.8q.85,2.2,1.7,4.39c.57,1.47,1.16,2.93,1.62,4.43,1,3,2,5.95,2.78,9,.41,1.52.81,3.05,1.22,4.58s.68,3.09,1,4.65.67,3.13.95,4.7.49,3.13.74,4.71c.53,3.15.84,6.38,1.17,9.65a39.38,39.38,0,0,1,.16,5.77c-.07,2-.13,3.95-.31,5.94a56.58,56.58,0,0,1-1.57,7.71,54.8,54.8,0,0,0-1.64,6.82A205.27,205.27,0,0,1,175,408.08L173.75,412c-.39,1.31-.92,2.6-1.37,3.9s-.9,2.6-1.41,3.89l-1.57,3.84-.79,1.92-.87,1.89L166,431.24c-.61,1.25-1.29,2.47-1.93,3.7s-1.27,2.48-2,3.67l-2.15,3.6c-.73,1.2-1.56,2.34-2.34,3.51-1.5,2.36-3.33,4.53-5,6.79a91.39,91.39,0,0,1-12,12.05,75.85,75.85,0,0,1-14.54,9.2,73.66,73.66,0,0,1-16.46,5.34,73.44,73.44,0,0,1-26.58-.27l-3.2-.65-1.6-.34c-.53-.12-1-.28-1.57-.42l-3.12-.89a31.65,31.65,0,0,1-3.1-1c-2-.78-4.12-1.5-6.13-2.34l-5.88-2.87A78.21,78.21,0,0,1,38.12,454.3a102.68,102.68,0,0,1-14.43-20.76c-7.86-14.8-12.75-30.77-16.13-47.07a331.35,331.35,0,0,1-6-50.35c-.41-9.8-.56-19.45-.07-29.21A152,152,0,0,1,5.7,277.8a95.26,95.26,0,0,1,11.66-28,71.16,71.16,0,0,1,9.94-12.4,63,63,0,0,1,13.05-9.85A62.2,62.2,0,0,1,59.08,221a66,66,0,0,1,19.35-.67c1.36.15,3.28.52,5.31.89,1,.2,2.07.37,3.07.61s2,.51,2.83.76c3.54,1,5.46,2,2.63,2.25-5.83.56-13.33,1.22-20.28,2.43a63.57,63.57,0,0,0-21.51,7.41,51.72,51.72,0,0,0-4.48,3l-2.11,1.57-2,1.72-1,.85-.91.92-1.79,1.83C37.15,245.83,36,247,35,248.44a64.38,64.38,0,0,0-9.23,17.92A100.21,100.21,0,0,0,23,276.41c-.75,3.47-1.33,7-1.79,10.71-.93,7.58-1.57,15-2.06,22.37s-.86,15-1.11,22.51c-.49,15.05-.51,30.23,2,45.63a153.59,153.59,0,0,0,5.22,21.28,128.42,128.42,0,0,0,7.74,19c6.08,11.84,13.73,22.44,23.77,30.23,1.21,1.2,2.58,2.16,3.79,3.3s2.49,2.12,3.64,3.14c.58.51,1.14,1,1.67,1.53s1.1.89,1.6,1.33A27,27,0,0,1,70.05,460a32.33,32.33,0,0,1,3.41,3.33,15.85,15.85,0,0,0,2.22,2.36,14.13,14.13,0,0,0,3.46,2c.41.17.85.37,1.35.53s1,.3,1.64.45c1.2.3,2.6.67,4.28,1a56.26,56.26,0,0,0,24.7-2,24.47,24.47,0,0,0,2.83-1c.93-.37,1.88-.69,2.8-1.09l2.73-1.31,1.37-.65,1.32-.78,2.67-1.53,2.6-1.76,1.32-.87,1.27-1,2.59-2a75.16,75.16,0,0,0,14.89-16.42,98.07,98.07,0,0,0,10.18-19.71,123.3,123.3,0,0,0,7.84-45.2,274.81,274.81,0,0,0-3.63-37.52c-.26-1.5-.52-3-.77-4.51l-.37-2.24-.45-2.22c-.29-1.48-.57-2.95-.85-4.42s-.65-2.92-1-4.36c-.57-2.93-1.37-5.75-2-8.62-.31-1.44-.75-2.82-1.1-4.24s-.68-2.84-1.11-4.22c-2.51-9-4.77-16.53-7.39-23.75A97.57,97.57,0,0,0,136.43,257,71.91,71.91,0,0,0,123,242.77a105.79,105.79,0,0,0-8.56-6.33c-3-2-6.07-3.88-9.22-5.62-2.51-1.38-4.22-3.14-6.95-4.88,16.76,2.8,33.85,14.33,47.42,31,1.86,2.3,2.11,3.75,3.1,5.64,1,1.4,2,2.78,2.95,4.11s2,2.58,3,3.89,2,2.53,2.95,3.83S159.53,277.07,160.45,278.41Z" fill="#000000" opacity="0.8"/></g><g id="change3_1"><path d="M153.39,273.33a141.08,141.08,0,0,1,27.86,68.84,40.55,40.55,0,0,1,.34,5.67c0,1.94,0,3.89-.11,5.85a54.49,54.49,0,0,1-1.29,7.63,52.49,52.49,0,0,0-1.38,6.76c-2.15,21.12-7.17,41.15-16,59.43-1,2.31-2.34,4.51-3.53,6.74-.57,1.13-1.3,2.19-2,3.28s-1.3,2.18-2,3.23c-1.48,2.07-2.82,4.24-4.46,6.2-.8,1-1.56,2-2.38,3l-2.56,2.87a74.82,74.82,0,0,1-11.54,10.33l-1.57,1.16-1.66,1.05c-1.13.68-2.21,1.44-3.37,2.07l-3.52,1.84a18.81,18.81,0,0,1-1.82.84l-1.84.78a52.5,52.5,0,0,1-5.92,2.06,24.76,24.76,0,0,1-3,.77l-3,.67c-2,.29-4.09.57-6.13.78l-3.06.13a28.41,28.41,0,0,1-3.06.05,83.14,83.14,0,0,1-23.67-4A71,71,0,0,1,51.8,460.48a81.34,81.34,0,0,1-16.33-16.61,111.84,111.84,0,0,1-11.83-20.14,169.18,169.18,0,0,1-8.22-22.2A265.84,265.84,0,0,1,6.3,353.1c-.94-9.63-1.55-19.19-1.75-28.7a201.78,201.78,0,0,1,1-28.54A124.18,124.18,0,0,1,12,267.71,76.16,76.16,0,0,1,27.32,242a61.78,61.78,0,0,1,17.9-13.22,53.59,53.59,0,0,1,21.58-5.4c1.35,0,3.68,0,6.33,0,1.33,0,2.72.12,4.11.17s2.78.12,4.06.31c5.17.55,8.83,1.5,6,1.83-5.74.79-13.12,1.78-19.85,3.4A58,58,0,0,0,47,237.87a48,48,0,0,0-4.09,3.23,47.27,47.27,0,0,0-3.68,3.53,52.05,52.05,0,0,0-6.06,7.91c-.92,1.36-1.66,2.87-2.47,4.28s-1.49,2.94-2.09,4.5a74.7,74.7,0,0,0-3.3,9.48,112.78,112.78,0,0,0-3.6,20.81c-.63,7.6-1.06,14.92-1.35,22.34s-.59,15-.73,22.51c-.26,15-.1,30.09,2.7,45.29,2.92,14.77,7.47,28,13.84,39.42A93.93,93.93,0,0,0,47,437a72.69,72.69,0,0,0,13.71,12.38q1,.73,1.92,1.53c.64.52,1.32.94,1.95,1.43,1.29.95,2.47,2,3.72,2.84s2.3,1.83,3.33,2.63A24.67,24.67,0,0,1,74.36,460c1.54,1.38,2.62,2.27,3.35,3.06s1.2,1.41,1.83,2a7,7,0,0,0,1.15.87,10.34,10.34,0,0,0,1.78.77,30.11,30.11,0,0,0,6.91,1.53,50.58,50.58,0,0,0,23.79-3l2.71-1.05c.88-.41,1.74-.86,2.62-1.28,1.78-.77,3.41-1.9,5.13-2.85a74.4,74.4,0,0,0,9.79-7.48,75.17,75.17,0,0,0,14-16.56,98.64,98.64,0,0,0,9.49-19.71,124,124,0,0,0,6.91-44.89c0-3.13-.32-6.28-.51-9.4-.07-1.56-.29-3.13-.43-4.68s-.28-3.12-.48-4.67-.39-3.1-.59-4.64l-.29-2.32-.36-2.3-.69-4.6c-.21-1.54-.53-3-.78-4.5s-.49-3-.79-4.44-.61-2.93-.91-4.39l-.43-2.19-.52-2.15c-.34-1.43-.66-2.87-1-4.3s-.73-2.83-1.09-4.23l-.51-2.12c-.18-.71-.4-1.39-.59-2.09-.39-1.38-.76-2.77-1.12-4.17s-.81-2.75-1.22-4.11c-2.63-8.83-5-16.2-7.74-23.27a93.88,93.88,0,0,0-10.74-20.67,69.37,69.37,0,0,0-13.57-13.71,115.08,115.08,0,0,0-17.81-11.34c-2.51-1.29-4.23-3-7-4.6,8.39,1.06,15.48,4.27,22.38,8.74a97.75,97.75,0,0,1,10.24,7.87c3.4,3,6.85,6.4,10.43,10.22a26.59,26.59,0,0,1,3.33,5.32C145.19,264,149.56,268.26,153.39,273.33Z" fill="#000000" opacity="0.8"/></g><g id="change4_1"><path d="M148.21,276.22c.72.95,1.46,1.84,2.12,2.74l1.92,2.58c1.3,1.64,2.41,3.25,3.55,4.79.56.77,1.15,1.52,1.69,2.29l1.59,2.32c.53.78,1.07,1.56,1.62,2.35s1,1.64,1.55,2.49c1,1.72,2.17,3.49,3.16,5.52s2.17,4.18,3.12,6.67c.5,1.24,1,2.54,1.56,3.9s.95,2.84,1.46,4.38,1,3.16,1.43,4.9.84,3.55,1.29,5.47a38.43,38.43,0,0,1,.75,5.55c.15,1.9.31,3.83.3,5.75a50.92,50.92,0,0,1-.77,7.52,51,51,0,0,0-.89,6.7,217.34,217.34,0,0,1-3,30.32,176.09,176.09,0,0,1-7.25,28.68A133.56,133.56,0,0,1,151,437.59c-5.27,8.18-11.55,15.86-19.52,21.82a50.36,50.36,0,0,1-4.76,3.22,23,23,0,0,1-2.46,1.38l-2.47,1.29c-1.7.72-3.38,1.43-5.06,2.06l-2.57.8a21.3,21.3,0,0,1-2.57.71,60.75,60.75,0,0,1-20.41,1.29l-4.94-.66-4.84-1-1.2-.26-1.18-.35-2.35-.69-2.34-.68-2.23-.86-2.21-.85a16.75,16.75,0,0,1-2.18-.92l-4.21-2.09c-1.37-.74-2.67-1.63-4-2.43a35,35,0,0,1-3.83-2.67,70.77,70.77,0,0,1-13.51-13.18,106,106,0,0,1-10.77-16.66c-6.26-12.21-11.16-26.27-14.86-42.5A271.45,271.45,0,0,1,12,357.54c-1-8.69-1.72-17.18-2.09-25.68-.17-4.25-.28-8.5-.27-12.78s.07-8.58.33-12.89a141.55,141.55,0,0,1,4-26.59C15.59,274,18.18,264,23.36,255a56.65,56.65,0,0,1,9.07-12,38.53,38.53,0,0,1,9.57-7,28.09,28.09,0,0,0,3-1.5c.67-.4,1.44-.78,2.29-1.18L50,231.93a75.53,75.53,0,0,1,13.69-4.49c2.41-.42,4.75-1,6.88-1.12l3-.32c.93-.1,1.77-.09,2.53-.12,3-.08,4.43,0,3,.32-2.81.7-4.89,1.15-7.12,1.82-1.11.32-2.27.58-3.55.91s-2.71.77-4.37,1.2a55.88,55.88,0,0,0-19.18,9.52,52.12,52.12,0,0,0-12.46,14.27,70.85,70.85,0,0,0-7.18,17.37,111.79,111.79,0,0,0-3.5,20.32c-.31,3.79-.58,7.55-.81,11.31s-.4,7.45-.55,11.28c-.29,7.65-.57,15.38-.68,23.09-.22,15.4.12,30.88,3,46.07a145.29,145.29,0,0,0,5.81,20.85,114.63,114.63,0,0,0,8.38,18.34c6.53,11.28,14.64,21,25,27.6l1,.76c.32.26.68.46,1,.69.67.46,1.32.93,2,1.41,1.25,1,2.59,1.84,3.79,2.74.61.44,1.19.89,1.75,1.34L73,458.26a27.35,27.35,0,0,1,2.73,2.25A27.19,27.19,0,0,0,79.66,463a8,8,0,0,0,2.81.91l3.79.45c.83.15,1.8.14,2.95.26l1.86.2,1.05.12c.36,0,.73,0,1.12.06a65.6,65.6,0,0,0,21.66-2.26,7.87,7.87,0,0,0,1.25-.39l1.23-.45c.82-.31,1.67-.57,2.49-.91l2.45-1.15,1.24-.58c.41-.2.8-.46,1.2-.69l2.45-1.44c.83-.48,1.58-1.11,2.4-1.68a48.31,48.31,0,0,0,4.79-3.93,76,76,0,0,0,13.68-16.89,102.37,102.37,0,0,0,9.25-19.83,122.14,122.14,0,0,0,5.17-21.74,128.77,128.77,0,0,0,1.28-23.23c0-1.57-.16-3.14-.26-4.7s-.19-3.13-.33-4.7l-.47-4.68-.23-2.33-.31-2.33c-.2-1.54-.39-3.09-.59-4.63s-.48-3.08-.7-4.62-.44-3.08-.72-4.58l-.81-4.47a306.34,306.34,0,0,0-8.49-34.05c-2.72-8.78-5.22-16.08-8-23.11a94.88,94.88,0,0,0-11-20.5,70,70,0,0,0-13.72-13.53,116.6,116.6,0,0,0-18-11,28.23,28.23,0,0,1-3.44-2.11L95,227.3a18.35,18.35,0,0,0-2-1.19c1.2.12,2.14.25,3.15.43s1.93.38,2.83.62a38.11,38.11,0,0,1,5.13,1.73,48.51,48.51,0,0,1,9,5,101.84,101.84,0,0,1,8.74,6.93c3,2.67,6.34,5.67,10,9.29a9.75,9.75,0,0,1,2.13,3.51,22.57,22.57,0,0,0,1.43,3.25c-2.61-3-3-3.37-2.06-2.27s3.16,3.74,5.5,6.87c1.15,1.58,2.4,3.23,3.48,4.93l1.63,2.45,1.41,2.32c.87,1.46,1.64,2.68,2.11,3.61Z" fill="#000000" opacity="0.8"/></g></g></g></g></g></svg>