<?xml version="1.0" encoding="UTF-8"?><svg xmlns="http://www.w3.org/2000/svg" xmlns:xlink="http://www.w3.org/1999/xlink" data-name="Layer 39" height="47.7" preserveAspectRatio="xMidYMid meet" version="1.0" viewBox="0.5 0.3 47.7 47.7" width="47.7" zoomAndPan="magnify"><g id="change1_1"><path d="M20.2,38.39A18.2,18.2,0,1,1,33.07,7.33h0A18.19,18.19,0,0,1,20.2,38.39ZM20.2,6a14.2,14.2,0,1,0,10,4.15A14.16,14.16,0,0,0,20.2,6Z" fill="inherit"/></g><g id="change1_2"><path d="M46,48a2,2,0,0,1-1.41-.59L30.24,33.07a2,2,0,1,1,2.83-2.83L47.41,44.59A2,2,0,0,1,46,48Z" fill="inherit"/></g></svg>