<?xml version="1.0" encoding="UTF-8"?><svg xmlns="http://www.w3.org/2000/svg" xmlns:xlink="http://www.w3.org/1999/xlink" height="45.2" preserveAspectRatio="xMidYMid meet" version="1.0" viewBox="-0.9 -0.7 54.0 45.2" width="54.0" zoomAndPan="magnify"><g data-name="Layer 2"><g data-name="Layer 1" id="change1_1"><path d="M26.1,44.53l-1.17-.86A153.87,153.87,0,0,1,3.49,24,13.09,13.09,0,0,1,.73,10.74,15.94,15.94,0,0,1,12.6.25c4.81-.92,9.54.68,13.5,4.52C30.05.93,34.78-.67,39.59.25A15.94,15.94,0,0,1,51.46,10.74,13.06,13.06,0,0,1,48.7,24a154.13,154.13,0,0,1-21.43,19.7ZM15.25,4a10.22,10.22,0,0,0-1.9.18A12,12,0,0,0,4.5,12a9.12,9.12,0,0,0,2,9.31A156.12,156.12,0,0,0,26.1,39.57,156.83,156.83,0,0,0,45.75,21.32,9.13,9.13,0,0,0,47.69,12a12,12,0,0,0-8.85-7.85C36,3.62,31.8,4,27.61,9L26.1,10.75,24.58,9C21.25,5,17.9,4,15.25,4Z" fill="#231f20"/></g></g></svg>